{"glyphs":{"0":{"ha":1014,"x_min":75,"x_max":939,"o":"m 939 488 q 908 685 939 593 q 822 844 878 776 q 685 951 765 913 q 508 989 606 989 q 331 950 411 989 q 194 843 251 911 q 106 683 138 775 q 75 485 75 590 q 106 287 75 378 q 192 128 136 196 q 328 22 249 60 q 506 -17 408 -17 q 683 22 603 -17 q 819 129 763 61 q 908 289 876 197 q 939 488 939 381 m 719 485 q 705 362 719 418 q 663 264 690 306 q 596 199 635 222 q 508 176 557 176 q 420 200 460 176 q 353 265 381 224 q 310 364 325 307 q 294 488 294 421 q 309 611 294 554 q 351 709 324 668 q 418 773 379 750 q 506 796 457 796 q 594 772 554 796 q 661 707 633 749 q 704 608 689 665 q 719 485 719 551 z "},"1":{"ha":586,"x_min":33,"x_max":458,"o":"m 33 896 l 78 721 l 247 763 l 247 0 l 458 0 l 458 979 l 313 979 l 33 896 z "},"2":{"ha":865,"x_min":68,"x_max":788,"o":"m 429 794 q 524 763 488 794 q 560 668 560 731 q 551 612 560 638 q 522 559 542 586 q 469 502 501 532 q 392 435 438 472 l 68 169 l 68 0 l 788 0 l 788 185 l 364 185 l 522 307 q 635 399 586 357 q 715 485 683 442 q 762 576 746 528 q 778 685 778 624 q 755 808 778 753 q 688 903 732 864 q 583 965 644 943 q 443 986 521 986 q 326 973 378 986 q 233 934 275 960 q 153 871 190 908 q 81 785 117 833 l 231 664 q 328 763 285 731 q 429 794 372 794 z "},"3":{"ha":863,"x_min":53,"x_max":782,"o":"m 492 789 l 260 556 l 293 419 l 382 419 q 523 388 474 419 q 572 294 572 356 q 534 207 572 239 q 435 175 496 175 q 305 205 360 175 q 200 292 250 235 l 53 151 q 208 30 115 76 q 432 -17 300 -17 q 578 7 513 -17 q 688 74 643 31 q 758 175 733 117 q 782 303 782 233 q 760 419 782 371 q 701 499 738 467 q 618 550 665 532 q 521 576 571 568 l 767 811 l 767 972 l 110 972 l 110 789 l 492 789 z "},"4":{"ha":957,"x_min":43,"x_max":888,"o":"m 576 979 l 43 361 l 78 210 l 553 210 l 553 0 l 757 0 l 757 210 l 888 210 l 888 383 l 757 383 l 757 979 l 576 979 m 553 383 l 294 383 l 553 686 l 553 383 z "},"5":{"ha":875,"x_min":60,"x_max":793,"o":"m 125 493 l 249 411 q 324 437 283 426 q 411 447 365 447 q 537 413 490 447 q 583 314 583 378 q 540 213 583 247 q 421 178 496 178 q 300 206 356 178 q 189 283 244 233 l 60 129 q 218 22 131 61 q 424 -17 306 -17 q 576 7 507 -17 q 692 74 644 31 q 767 181 740 118 q 793 321 793 243 q 767 463 793 404 q 694 560 740 522 q 587 615 649 597 q 453 633 525 633 q 383 628 413 633 q 325 617 354 624 l 336 785 l 750 785 l 750 972 l 153 972 l 125 493 z "},"6":{"ha":919,"x_min":75,"x_max":842,"o":"m 806 882 q 740 927 774 907 q 671 961 707 947 q 593 982 635 975 q 501 989 551 989 q 313 948 393 989 q 179 835 232 907 q 101 667 126 764 q 75 457 75 569 q 106 226 75 311 q 190 88 138 140 q 308 10 242 36 q 471 -17 375 -17 q 618 8 550 -17 q 735 77 686 32 q 813 184 785 122 q 842 321 842 246 q 815 456 842 397 q 743 553 789 514 q 635 612 697 592 q 500 632 572 632 q 381 613 428 632 q 299 569 335 593 q 318 658 304 617 q 356 730 332 700 q 415 777 381 760 q 494 794 449 794 q 551 789 525 794 q 601 774 578 783 q 647 749 625 764 q 693 717 669 735 l 806 882 m 629 311 q 585 207 629 247 q 463 167 542 167 q 338 208 383 167 q 293 313 293 249 q 337 415 293 375 q 460 454 381 454 q 584 414 539 454 q 629 311 629 374 z "},"7":{"ha":860,"x_min":94,"x_max":794,"o":"m 94 788 l 551 788 l 117 0 l 358 0 l 794 811 l 794 972 l 94 972 l 94 788 z "},"8":{"ha":875,"x_min":63,"x_max":813,"o":"m 813 274 q 772 413 813 361 q 656 504 731 465 q 746 589 713 539 q 779 718 779 639 q 755 823 779 774 q 685 908 731 872 q 577 965 640 944 q 438 986 514 986 q 297 965 360 986 q 190 908 235 944 q 120 823 144 872 q 96 718 96 774 q 129 589 96 639 q 219 504 163 539 q 102 413 142 468 q 63 268 63 358 q 91 152 63 204 q 169 63 119 100 q 288 6 219 26 q 438 -14 357 -14 q 587 6 518 -14 q 706 62 656 25 q 784 152 756 99 q 813 274 813 206 m 576 694 q 539 608 576 642 q 438 575 501 575 q 336 609 374 575 q 299 696 299 643 q 335 776 299 742 q 438 810 371 810 q 540 775 504 810 q 576 694 576 740 m 606 285 q 561 197 606 232 q 438 163 517 163 q 314 197 358 163 q 269 285 269 232 q 317 374 269 343 q 438 406 364 406 q 558 374 511 406 q 606 285 606 343 z "},"9":{"ha":919,"x_min":78,"x_max":844,"o":"m 844 515 q 836 644 844 588 q 813 746 828 701 q 776 824 797 790 q 729 883 756 857 q 672 931 701 911 q 610 964 643 951 q 537 983 576 976 q 449 989 497 989 q 298 963 367 989 q 181 892 229 938 q 105 783 132 846 q 78 647 78 721 q 102 514 78 572 q 172 415 126 456 q 282 353 218 375 q 425 332 346 332 q 538 350 489 332 q 622 399 586 368 q 563 239 611 300 q 425 178 515 178 q 314 198 363 178 q 213 261 265 218 l 100 99 q 238 15 163 47 q 419 -17 313 -17 q 603 22 524 -17 q 735 131 682 61 q 817 298 789 200 q 844 515 844 396 m 626 656 q 583 551 626 592 q 460 510 539 510 q 335 550 381 510 q 290 657 290 590 q 333 765 290 724 q 456 806 376 806 q 581 764 536 806 q 626 656 626 722 z "}," ":{"ha":417,"x_min":0,"x_max":0,"o":""},"!":{"ha":450,"x_min":101,"x_max":349,"o":"m 101 972 l 101 944 l 167 331 l 283 331 l 349 944 l 349 972 l 101 972 m 338 0 l 338 222 l 113 222 l 113 0 l 338 0 z "},"\"":{"ha":722,"x_min":79,"x_max":665,"o":"m 407 529 l 514 529 l 665 965 l 665 972 l 432 972 l 407 529 m 79 529 l 186 529 l 338 965 l 338 972 l 104 972 l 79 529 z "},"#":{"ha":972,"x_min":49,"x_max":924,"o":"m 924 592 l 924 769 l 818 769 l 853 972 l 669 972 l 635 769 l 433 769 l 468 972 l 285 972 l 250 769 l 97 769 l 97 592 l 219 592 l 185 386 l 49 386 l 49 208 l 154 208 l 118 0 l 301 0 l 338 208 l 539 208 l 503 0 l 686 0 l 722 208 l 875 208 l 875 386 l 753 386 l 788 592 l 924 592 m 604 592 l 569 386 l 368 386 l 403 592 l 604 592 z "},"$":{"ha":897,"x_min":61,"x_max":828,"o":"m 828 276 q 756 463 828 393 q 526 576 685 533 l 526 786 q 614 753 571 775 q 699 704 657 732 l 792 867 q 672 933 735 907 q 533 969 608 958 l 533 1053 l 389 1053 l 389 972 q 269 944 324 965 q 177 887 215 922 q 118 804 139 851 q 97 699 97 757 q 116 591 97 638 q 172 510 135 544 q 265 449 208 475 q 396 403 321 424 l 396 182 q 280 223 333 194 q 169 294 226 251 l 61 136 q 215 49 131 83 q 389 4 299 15 l 389 -136 l 533 -136 l 533 1 q 654 31 600 8 q 747 88 708 53 q 806 171 785 124 q 828 276 828 218 m 396 611 q 319 656 339 632 q 300 711 300 679 q 323 768 300 744 q 396 799 346 792 l 396 611 m 625 265 q 526 175 625 190 l 526 369 q 604 325 583 349 q 625 265 625 301 z "},"%":{"ha":1194,"x_min":63,"x_max":1132,"o":"m 535 736 q 518 833 535 788 q 470 911 501 878 q 396 964 439 944 q 300 983 353 983 q 203 964 247 983 q 128 910 160 944 q 80 831 97 876 q 63 733 63 785 q 79 637 63 682 q 127 558 96 592 q 201 506 158 525 q 297 486 244 486 q 394 506 350 486 q 469 559 438 525 q 517 638 500 593 q 535 736 535 683 m 1035 972 l 869 972 l 160 0 l 325 0 l 1035 972 m 1132 239 q 1115 335 1132 290 q 1067 414 1099 381 q 993 467 1036 447 q 897 486 950 486 q 801 467 844 486 q 726 413 757 447 q 677 333 694 379 q 660 236 660 288 q 676 140 660 185 q 724 61 693 94 q 799 8 756 28 q 894 -11 842 -11 q 991 8 947 -11 q 1066 62 1035 28 q 1115 141 1097 96 q 1132 239 1132 186 m 389 733 q 367 649 389 685 q 300 613 344 613 q 233 649 258 613 q 208 736 208 686 q 231 821 208 785 q 297 857 253 857 q 364 820 339 857 q 389 733 389 783 m 986 236 q 964 151 986 188 q 897 115 942 115 q 831 152 856 115 q 806 239 806 189 q 828 324 806 288 q 894 360 850 360 q 961 323 936 360 q 986 236 986 286 z "},"&":{"ha":967,"x_min":47,"x_max":928,"o":"m 928 90 l 785 233 q 853 335 821 282 q 913 439 885 388 l 756 525 q 708 438 732 481 q 661 358 685 396 l 532 488 q 679 583 622 522 q 736 743 736 644 q 717 840 736 794 q 661 918 697 885 q 575 970 625 951 q 463 989 525 989 q 337 967 392 989 q 244 910 282 946 q 188 828 207 875 q 168 732 168 782 q 184 634 168 681 q 236 536 200 588 q 96 428 144 494 q 47 268 47 363 q 72 151 47 203 q 141 62 97 99 q 244 6 185 25 q 374 -14 304 -14 q 528 16 458 -14 q 658 94 599 46 l 771 -19 l 928 90 m 550 731 q 517 653 550 683 q 421 600 485 624 q 377 662 390 635 q 364 722 364 689 q 390 794 364 767 q 458 822 415 822 q 524 799 499 822 q 550 731 550 775 m 539 217 q 470 176 506 190 q 399 161 435 161 q 301 192 339 161 q 263 276 263 224 q 283 347 263 313 q 353 406 304 381 l 539 217 z "},"'":{"ha":397,"x_min":79,"x_max":340,"o":"m 79 529 l 189 529 l 340 965 l 340 972 l 104 972 l 79 529 z "},"(":{"ha":618,"x_min":82,"x_max":560,"o":"m 560 853 l 467 993 q 178 744 274 889 q 82 399 82 600 q 178 53 82 197 q 467 -196 274 -92 l 560 -56 q 438 43 489 -7 q 355 147 388 93 q 307 263 322 201 q 292 399 292 325 q 307 534 292 472 q 355 650 322 596 q 438 754 388 704 q 560 853 489 804 z "},")":{"ha":618,"x_min":58,"x_max":536,"o":"m 536 399 q 440 744 536 600 q 151 993 344 889 l 58 853 q 180 754 129 804 q 263 650 231 704 q 311 534 296 596 q 326 399 326 472 q 311 263 326 325 q 263 147 296 201 q 180 43 231 93 q 58 -56 129 -7 l 151 -196 q 440 53 344 -92 q 536 399 536 197 z "},"*":{"ha":597,"x_min":71,"x_max":526,"o":"m 526 681 l 371 746 l 526 811 l 468 911 l 333 808 l 356 975 l 242 975 l 264 808 l 129 911 l 71 811 l 226 746 l 71 681 l 129 581 l 264 683 l 242 517 l 356 517 l 333 683 l 468 581 l 526 681 z "},"+":{"ha":889,"x_min":94,"x_max":794,"o":"m 346 585 l 94 585 l 94 393 l 346 393 l 346 143 l 543 143 l 543 393 l 794 393 l 794 585 l 543 585 l 543 835 l 346 835 l 346 585 z "},",":{"ha":397,"x_min":36,"x_max":311,"o":"m 36 -137 l 54 -225 q 244 -163 178 -224 q 311 35 311 -103 l 311 222 l 86 222 l 86 0 l 172 0 q 36 -137 183 -122 z "},"-":{"ha":567,"x_min":69,"x_max":497,"o":"m 497 329 l 497 532 l 69 532 l 69 329 l 497 329 z "},".":{"ha":397,"x_min":86,"x_max":311,"o":"m 311 0 l 311 222 l 86 222 l 86 0 l 311 0 z "},"/":{"ha":736,"x_min":-39,"x_max":756,"o":"m 576 1108 l -39 -178 l 140 -178 l 756 1108 l 576 1108 z "},":":{"ha":411,"x_min":93,"x_max":318,"o":"m 318 522 l 318 744 l 93 744 l 93 522 l 318 522 m 318 0 l 318 222 l 93 222 l 93 0 l 318 0 z "},";":{"ha":411,"x_min":43,"x_max":318,"o":"m 318 522 l 318 744 l 93 744 l 93 522 l 318 522 m 43 -137 l 61 -225 q 251 -163 185 -224 q 318 35 318 -103 l 318 222 l 93 222 l 93 0 l 179 0 q 43 -137 190 -122 z "},"<":{"ha":889,"x_min":94,"x_max":767,"o":"m 94 585 l 94 393 l 767 99 l 767 297 l 297 490 l 767 683 l 767 879 l 94 585 z "},"=":{"ha":889,"x_min":115,"x_max":774,"o":"m 115 765 l 115 574 l 774 574 l 774 765 l 115 765 m 115 404 l 115 213 l 774 213 l 774 404 l 115 404 z "},">":{"ha":889,"x_min":122,"x_max":794,"o":"m 794 393 l 794 585 l 122 879 l 122 681 l 592 488 l 122 294 l 122 99 l 794 393 z "},"?":{"ha":756,"x_min":28,"x_max":704,"o":"m 249 563 l 242 556 l 274 331 l 415 331 l 431 415 q 538 447 488 426 q 624 500 588 467 q 683 581 661 533 q 704 696 704 629 q 680 819 704 765 q 611 910 656 874 q 505 966 567 947 q 368 985 443 985 q 172 943 254 985 q 28 835 89 901 l 156 694 q 255 767 204 743 q 364 790 306 790 q 458 765 425 790 q 492 690 492 739 q 436 601 492 633 q 249 563 381 568 m 453 0 l 453 222 l 228 222 l 228 0 l 453 0 z "},"@":{"ha":1361,"x_min":74,"x_max":1288,"o":"m 1288 439 q 1241 645 1288 546 q 1113 821 1194 744 q 920 943 1031 897 q 682 989 810 989 q 443 940 554 989 q 250 809 332 892 q 121 616 168 726 q 74 381 74 506 q 120 146 74 256 q 250 -47 167 36 q 447 -177 333 -129 q 693 -225 560 -225 q 891 -197 801 -225 q 1061 -121 981 -169 l 1033 -76 q 876 -146 954 -122 q 693 -169 797 -169 q 467 -126 569 -169 q 290 -9 364 -83 q 174 165 215 65 q 132 381 132 265 q 174 595 132 494 q 289 771 215 696 q 463 890 363 846 q 682 933 564 933 q 899 892 799 933 q 1073 783 1000 851 q 1188 624 1146 714 q 1229 439 1229 535 q 1215 317 1229 369 q 1178 228 1201 264 q 1122 174 1154 192 q 1053 156 1090 156 q 978 181 1004 156 q 951 243 951 206 q 952 263 951 251 q 956 286 953 275 l 1021 660 l 857 686 l 842 613 q 767 680 813 653 q 650 707 722 707 q 533 680 589 707 q 433 606 476 653 q 365 496 390 560 q 339 358 339 432 q 358 247 339 296 q 413 163 378 197 q 494 109 447 128 q 593 90 540 90 q 712 116 661 90 q 799 174 763 142 q 876 117 825 143 q 1011 90 926 90 q 1119 112 1068 90 q 1207 177 1169 133 q 1266 286 1244 221 q 1288 439 1288 351 m 807 433 q 794 354 807 390 q 758 291 781 318 q 705 249 735 264 q 642 233 675 233 q 547 268 583 233 q 511 368 511 303 q 524 446 511 410 q 560 508 538 482 q 614 549 583 533 q 678 564 644 564 q 771 528 735 564 q 807 433 807 493 z "},"A":{"ha":1097,"x_min":33,"x_max":1064,"o":"m 1064 0 l 647 979 l 450 979 l 33 0 l 251 0 l 340 218 l 751 218 l 840 0 l 1064 0 m 675 407 l 417 407 l 546 722 l 675 407 z "},"B":{"ha":1003,"x_min":117,"x_max":943,"o":"m 943 267 l 943 269 q 894 422 943 367 q 761 508 846 476 q 810 542 788 522 q 851 587 833 561 q 878 644 868 613 q 889 718 889 676 l 889 721 q 803 904 889 836 q 568 972 718 972 l 117 972 l 117 0 l 579 0 q 728 17 661 0 q 844 67 796 33 q 917 150 892 100 q 943 267 943 200 m 676 682 q 635 603 676 628 q 522 579 593 579 l 325 579 l 325 785 l 536 785 q 640 759 604 785 q 676 685 676 733 l 676 682 m 731 293 q 690 213 731 239 q 579 188 650 188 l 325 188 l 325 401 l 572 401 q 693 373 656 401 q 731 296 731 344 l 731 293 z "},"C":{"ha":1025,"x_min":74,"x_max":971,"o":"m 971 157 l 835 294 q 720 211 778 242 q 579 181 663 181 q 465 205 517 181 q 376 271 413 229 q 318 368 339 313 q 297 486 297 424 l 297 489 q 318 606 297 551 q 376 703 339 661 q 466 768 414 744 q 579 792 518 792 q 712 763 653 792 q 828 682 771 733 l 964 839 q 892 900 931 872 q 807 947 853 928 q 705 978 761 967 q 581 989 649 989 q 375 949 468 989 q 215 841 282 910 q 111 681 149 772 q 74 486 74 590 l 74 483 q 111 288 74 379 q 215 128 149 196 q 374 22 282 61 q 572 -17 465 -17 q 700 -5 643 -17 q 805 30 757 7 q 893 85 853 53 q 971 157 933 117 z "},"D":{"ha":1086,"x_min":117,"x_max":1013,"o":"m 1013 486 l 1013 489 q 975 680 1013 592 q 869 833 938 768 q 705 935 800 899 q 496 972 610 972 l 117 972 l 117 0 l 496 0 q 705 38 610 0 q 869 140 800 75 q 975 294 938 206 q 1013 486 1013 383 m 789 483 q 767 365 789 418 q 708 274 746 313 q 615 214 669 235 q 496 193 561 193 l 331 193 l 331 779 l 496 779 q 615 758 561 779 q 708 697 669 736 q 767 604 746 658 q 789 486 789 550 l 789 483 z "},"E":{"ha":931,"x_min":117,"x_max":857,"o":"m 857 0 l 857 190 l 329 190 l 329 394 l 788 394 l 788 585 l 329 585 l 329 782 l 850 782 l 850 972 l 117 972 l 117 0 l 857 0 z "},"F":{"ha":911,"x_min":117,"x_max":857,"o":"m 857 778 l 857 972 l 117 972 l 117 0 l 331 0 l 331 376 l 794 376 l 794 571 l 331 571 l 331 778 l 857 778 z "},"G":{"ha":1089,"x_min":74,"x_max":1000,"o":"m 1000 138 l 1000 560 l 578 560 l 578 375 l 793 375 l 793 236 q 592 178 711 178 q 473 201 526 178 q 380 265 419 224 q 319 363 340 307 q 297 486 297 419 l 297 489 q 319 606 297 551 q 378 702 340 661 q 467 767 417 743 q 576 792 518 792 q 653 785 618 792 q 717 765 688 778 q 775 735 747 753 q 831 693 803 717 l 965 856 q 888 913 928 888 q 801 954 847 938 q 702 980 756 971 q 583 989 649 989 q 379 949 472 989 q 218 841 286 910 q 112 681 150 772 q 74 486 74 590 l 74 483 q 111 283 74 375 q 216 125 149 192 q 377 21 283 58 q 585 -17 471 -17 q 822 28 718 -17 q 1000 138 925 74 z "},"H":{"ha":1056,"x_min":117,"x_max":939,"o":"m 939 0 l 939 972 l 725 972 l 725 588 l 331 588 l 331 972 l 117 972 l 117 0 l 331 0 l 331 390 l 725 390 l 725 0 l 939 0 z "},"I":{"ha":467,"x_min":126,"x_max":340,"o":"m 340 0 l 340 972 l 126 972 l 126 0 l 340 0 z "},"J":{"ha":783,"x_min":19,"x_max":682,"o":"m 682 336 l 682 972 l 463 972 l 463 346 q 428 223 463 261 q 332 185 393 185 q 238 210 281 185 q 154 282 196 236 l 19 132 q 147 29 69 72 q 338 -14 224 -14 q 478 8 414 -14 q 587 73 542 29 q 657 182 632 117 q 682 336 682 247 z "},"K":{"ha":1014,"x_min":117,"x_max":1001,"o":"m 1001 0 l 588 560 l 983 972 l 725 972 l 331 547 l 331 972 l 117 972 l 117 0 l 331 0 l 331 297 l 443 414 l 744 0 l 1001 0 z "},"L":{"ha":860,"x_min":117,"x_max":815,"o":"m 815 0 l 815 194 l 331 194 l 331 972 l 117 972 l 117 0 l 815 0 z "},"M":{"ha":1206,"x_min":117,"x_max":1089,"o":"m 1089 0 l 1089 972 l 858 972 l 603 561 l 347 972 l 117 972 l 117 0 l 326 0 l 326 631 l 597 219 l 603 219 l 876 635 l 876 0 l 1089 0 z "},"N":{"ha":1097,"x_min":117,"x_max":981,"o":"m 981 0 l 981 972 l 769 972 l 769 374 l 314 972 l 117 972 l 117 0 l 328 0 l 328 618 l 799 0 l 981 0 z "},"O":{"ha":1181,"x_min":74,"x_max":1107,"o":"m 1107 486 l 1107 489 q 1069 684 1107 593 q 962 842 1031 775 q 799 949 893 910 q 592 989 704 989 q 384 949 479 989 q 220 841 289 910 q 113 681 151 772 q 74 486 74 590 l 74 483 q 112 288 74 379 q 219 130 150 197 q 382 23 288 63 q 589 -17 476 -17 q 797 23 701 -17 q 960 131 892 63 q 1068 291 1029 200 q 1107 486 1107 382 m 883 483 q 862 366 883 421 q 802 269 840 311 q 710 204 764 228 q 592 181 656 181 q 473 205 526 181 q 380 271 419 229 q 319 368 340 313 q 297 486 297 424 l 297 489 q 319 606 297 551 q 378 703 340 661 q 470 768 417 744 q 589 792 524 792 q 707 767 653 792 q 801 701 761 743 q 862 604 840 660 q 883 486 883 549 l 883 483 z "},"P":{"ha":928,"x_min":117,"x_max":886,"o":"m 886 633 l 886 636 q 860 773 886 711 q 787 879 835 835 q 670 948 739 924 q 514 972 601 972 l 117 972 l 117 0 l 331 0 l 331 292 l 493 292 q 647 313 575 292 q 772 378 718 335 q 856 485 825 421 q 886 633 886 549 m 669 629 q 625 524 669 567 q 500 482 581 482 l 331 482 l 331 779 l 496 779 q 623 742 576 779 q 669 632 669 704 l 669 629 z "},"Q":{"ha":1181,"x_min":74,"x_max":1121,"o":"m 1121 122 l 1021 207 q 1085 339 1063 268 q 1107 486 1107 410 l 1107 489 q 1069 684 1107 593 q 962 842 1031 775 q 799 949 893 910 q 592 989 704 989 q 384 949 479 989 q 220 841 289 910 q 113 681 151 772 q 74 486 74 590 l 74 483 q 112 288 74 379 q 219 130 150 197 q 382 23 288 63 q 589 -17 476 -17 q 743 5 671 -17 q 878 67 815 26 l 985 -29 l 1121 122 m 883 483 q 857 350 883 408 l 697 494 l 561 342 l 719 207 q 592 181 660 181 q 473 205 526 181 q 380 271 419 229 q 319 368 340 313 q 297 486 297 424 l 297 489 q 319 606 297 551 q 378 703 340 661 q 470 768 417 744 q 589 792 524 792 q 707 767 653 792 q 801 701 761 743 q 862 604 840 660 q 883 486 883 549 l 883 483 z "},"R":{"ha":1004,"x_min":117,"x_max":957,"o":"m 957 0 l 719 347 q 870 456 813 382 q 928 649 928 531 l 928 651 q 831 888 928 803 q 561 972 735 972 l 117 972 l 117 0 l 331 0 l 331 311 l 499 311 l 707 0 l 957 0 m 711 638 q 669 538 711 575 q 547 500 626 500 l 331 500 l 331 779 l 543 779 q 667 744 622 779 q 711 640 711 710 l 711 638 z "},"S":{"ha":889,"x_min":50,"x_max":819,"o":"m 819 288 l 819 290 q 799 400 819 354 q 740 480 779 446 q 642 538 700 514 q 511 582 585 563 q 408 611 449 599 q 343 638 367 624 q 310 669 319 651 q 301 710 301 686 l 301 713 q 333 773 301 749 q 426 797 364 797 q 551 772 489 797 q 679 701 614 746 l 790 863 q 626 954 715 922 q 429 986 536 986 q 292 965 354 986 q 184 906 229 944 q 114 813 139 867 q 89 693 89 760 l 89 690 q 112 569 89 618 q 176 488 135 521 q 278 433 218 456 q 411 393 338 411 q 510 364 472 378 q 570 336 549 350 q 599 306 592 322 q 607 269 607 290 l 607 267 q 570 199 607 224 q 467 175 533 175 q 313 207 383 175 q 176 293 243 239 l 50 142 q 244 24 138 63 q 463 -14 351 -14 q 607 6 542 -14 q 719 65 672 26 q 793 159 767 103 q 819 288 819 215 z "},"T":{"ha":900,"x_min":47,"x_max":853,"o":"m 853 775 l 853 972 l 47 972 l 47 775 l 343 775 l 343 0 l 557 0 l 557 775 l 853 775 z "},"U":{"ha":1050,"x_min":101,"x_max":949,"o":"m 949 424 l 949 972 l 735 972 l 735 415 q 679 240 735 299 q 525 182 624 182 q 371 242 426 182 q 315 422 315 303 l 315 972 l 101 972 l 101 417 q 214 93 101 201 q 522 -15 326 -15 q 699 12 619 -15 q 833 94 778 39 q 919 231 889 149 q 949 424 949 313 z "},"V":{"ha":1042,"x_min":33,"x_max":1008,"o":"m 1008 972 l 778 972 l 524 288 l 269 972 l 33 972 l 426 -7 l 615 -7 l 1008 972 z "},"W":{"ha":1558,"x_min":42,"x_max":1517,"o":"m 1517 972 l 1293 972 l 1092 314 l 874 975 l 690 975 l 472 314 l 271 972 l 42 972 l 374 -7 l 560 -7 l 779 629 l 999 -7 l 1185 -7 l 1517 972 z "},"X":{"ha":1017,"x_min":43,"x_max":974,"o":"m 974 0 l 635 497 l 960 972 l 717 972 l 511 657 l 307 972 l 57 972 l 382 494 l 43 0 l 286 0 l 506 333 l 724 0 l 974 0 z "},"Y":{"ha":994,"x_min":17,"x_max":978,"o":"m 978 972 l 735 972 l 499 582 l 267 972 l 17 972 l 390 383 l 390 0 l 604 0 l 604 388 l 978 972 z "},"Z":{"ha":983,"x_min":88,"x_max":897,"o":"m 897 0 l 897 188 l 363 188 l 897 810 l 897 972 l 104 972 l 104 785 l 622 785 l 88 163 l 88 0 l 897 0 z "},"[":{"ha":646,"x_min":115,"x_max":564,"o":"m 564 972 l 115 972 l 115 -181 l 564 -181 l 564 -15 l 318 -15 l 318 807 l 564 807 l 564 972 z "},"\\":{"ha":736,"x_min":-19,"x_max":775,"o":"m 160 1108 l -19 1108 l 596 -178 l 775 -178 l 160 1108 z "},"]":{"ha":646,"x_min":82,"x_max":531,"o":"m 82 972 l 82 807 l 328 807 l 328 -15 l 82 -15 l 82 -181 l 531 -181 l 531 972 l 82 972 z "},"^":{"ha":694,"x_min":69,"x_max":625,"o":"m 346 847 l 472 685 l 625 685 l 419 972 l 275 972 l 69 685 l 219 685 l 346 847 z "},"_":{"ha":833,"x_min":-3,"x_max":836,"o":"m -3 -61 l -3 -222 l 836 -222 l 836 -61 l -3 -61 z "},"`":{"ha":694,"x_min":153,"x_max":492,"o":"m 492 826 l 335 1072 l 153 993 l 331 826 l 492 826 z "},"a":{"ha":822,"x_min":50,"x_max":735,"o":"m 735 0 l 735 432 q 656 668 735 583 q 403 753 576 753 q 242 736 308 753 q 114 693 175 719 l 167 532 q 265 562 218 551 q 372 572 311 572 q 492 538 451 572 q 532 436 532 503 l 532 424 q 449 446 492 438 q 350 454 407 454 q 228 440 283 454 q 134 396 174 425 q 72 322 94 367 q 50 217 50 278 l 50 214 q 70 116 50 158 q 125 44 90 74 q 206 1 160 15 q 306 -14 253 -14 q 438 12 383 -14 q 531 81 492 38 l 531 0 l 735 0 m 535 263 q 490 168 535 204 q 369 132 444 132 q 286 156 318 132 q 254 222 254 179 l 254 225 q 293 301 254 275 q 400 328 332 328 q 473 320 439 328 q 535 300 507 313 l 535 263 z "},"b":{"ha":938,"x_min":94,"x_max":876,"o":"m 876 371 l 876 374 q 848 538 876 467 q 772 659 819 610 q 664 733 725 708 q 538 758 603 758 q 399 724 454 758 q 306 638 344 690 l 306 1014 l 94 1014 l 94 0 l 306 0 l 306 97 q 398 19 343 53 q 538 -14 453 -14 q 665 11 604 -14 q 773 85 726 36 q 848 206 819 135 q 876 371 876 278 m 665 371 q 651 286 665 324 q 611 222 636 249 q 553 180 586 194 q 483 165 521 165 q 413 180 446 165 q 356 222 381 194 q 317 287 332 249 q 303 371 303 325 l 303 374 q 317 458 303 419 q 356 523 332 496 q 413 565 381 550 q 483 579 446 579 q 553 565 521 579 q 611 523 586 550 q 651 458 636 496 q 665 374 665 419 l 665 371 z "},"c":{"ha":793,"x_min":58,"x_max":750,"o":"m 750 119 l 626 244 q 548 187 588 208 q 456 165 508 165 q 378 181 413 165 q 318 225 343 197 q 280 290 293 253 q 267 371 267 328 l 267 374 q 280 452 267 415 q 317 517 293 489 q 374 560 342 544 q 447 576 407 576 q 542 554 504 576 q 617 494 581 532 l 746 633 q 624 725 693 692 q 449 758 554 758 q 291 728 363 758 q 168 644 219 697 q 88 521 117 592 q 58 371 58 450 l 58 368 q 88 219 58 289 q 168 97 117 149 q 291 14 219 44 q 446 -17 363 -17 q 626 22 557 -17 q 750 119 696 60 z "},"d":{"ha":938,"x_min":61,"x_max":843,"o":"m 843 0 l 843 1014 l 632 1014 l 632 647 q 540 725 594 692 q 400 758 485 758 q 272 733 333 758 q 165 659 211 708 q 90 538 118 610 q 61 374 61 467 l 61 371 q 90 206 61 278 q 165 85 118 135 q 274 11 213 36 q 400 -14 335 -14 q 538 20 483 -14 q 632 107 593 54 l 632 0 l 843 0 m 635 371 q 620 287 635 325 q 581 222 606 249 q 524 180 557 194 q 454 165 492 165 q 384 180 417 165 q 326 222 351 194 q 287 287 301 249 q 272 371 272 325 l 272 374 q 287 458 272 421 q 326 523 301 496 q 384 565 351 550 q 454 579 417 579 q 524 565 492 579 q 581 523 557 550 q 620 458 606 496 q 635 374 635 419 l 635 371 z "},"e":{"ha":851,"x_min":58,"x_max":789,"o":"m 789 351 l 789 354 q 767 506 789 433 q 701 635 746 579 q 588 725 656 692 q 426 758 519 758 q 277 728 344 758 q 161 644 210 697 q 85 521 113 592 q 58 371 58 450 l 58 368 q 88 212 58 282 q 169 90 117 142 q 292 11 221 39 q 447 -17 364 -17 q 624 20 549 -17 q 751 122 699 57 l 631 229 q 544 171 586 189 q 450 153 503 153 q 331 190 379 153 q 268 299 283 226 l 786 299 q 788 325 788 314 q 789 351 789 336 m 583 431 l 265 431 q 319 546 278 503 q 426 589 360 589 q 533 545 493 589 q 583 431 574 501 z "},"f":{"ha":531,"x_min":43,"x_max":511,"o":"m 511 828 l 511 1003 q 447 1018 482 1013 q 361 1024 411 1024 q 190 966 249 1024 q 131 785 131 908 l 131 738 l 43 738 l 43 564 l 131 564 l 131 0 l 342 0 l 342 564 l 510 564 l 510 736 l 339 736 l 339 765 q 415 846 339 846 q 465 841 443 846 q 511 828 488 836 z "},"g":{"ha":938,"x_min":61,"x_max":843,"o":"m 843 168 l 843 744 l 632 744 l 632 647 q 533 726 589 694 q 392 758 478 758 q 268 735 328 758 q 163 668 208 713 q 89 559 117 624 q 61 411 61 494 l 61 408 q 88 260 61 325 q 161 151 115 196 q 267 84 207 107 q 392 61 326 61 q 532 93 476 61 q 635 182 588 125 l 635 146 q 583 -6 635 46 q 422 -57 531 -57 q 288 -39 347 -57 q 171 11 229 -21 l 99 -147 q 253 -205 169 -185 q 428 -225 336 -225 q 610 -203 532 -225 q 740 -133 688 -181 q 817 -12 792 -86 q 843 168 843 63 m 635 408 q 621 339 635 371 q 583 284 607 307 q 525 249 558 261 q 453 236 492 236 q 324 283 375 236 q 272 408 272 331 l 272 411 q 286 481 272 449 q 324 535 300 513 q 381 571 349 558 q 453 583 414 583 q 525 571 492 583 q 583 535 558 558 q 621 481 607 513 q 635 411 635 449 l 635 408 z "},"h":{"ha":865,"x_min":94,"x_max":776,"o":"m 776 0 l 776 482 q 710 685 776 611 q 524 758 644 758 q 451 749 483 758 q 393 722 419 739 q 345 684 367 706 q 306 639 324 663 l 306 1014 l 94 1014 l 94 0 l 306 0 l 306 415 q 341 528 306 490 q 438 567 376 567 q 532 528 499 567 q 565 415 565 490 l 565 0 l 776 0 z "},"i":{"ha":419,"x_min":99,"x_max":321,"o":"m 321 826 l 321 1014 l 99 1014 l 99 826 l 321 826 m 315 0 l 315 744 l 104 744 l 104 0 l 315 0 z "},"j":{"ha":419,"x_min":-15,"x_max":321,"o":"m 321 826 l 321 1014 l 99 1014 l 99 826 l 321 826 m 315 13 l 315 744 l 104 744 l 104 29 q 83 -37 104 -18 q 29 -57 63 -57 q -15 -53 10 -57 l -15 -218 q 27 -224 7 -222 q 76 -226 47 -226 q 255 -169 194 -226 q 315 13 315 -111 z "},"k":{"ha":822,"x_min":94,"x_max":815,"o":"m 815 0 l 522 451 l 806 744 l 553 744 l 306 474 l 306 1014 l 94 1014 l 94 0 l 306 0 l 306 226 l 379 304 l 574 0 l 815 0 z "},"l":{"ha":419,"x_min":104,"x_max":315,"o":"m 315 0 l 315 1014 l 104 1014 l 104 0 l 315 0 z "},"m":{"ha":1319,"x_min":94,"x_max":1231,"o":"m 1231 0 l 1231 485 q 1164 689 1231 619 q 979 758 1097 758 q 843 728 903 758 q 735 640 783 699 q 652 728 706 697 q 525 758 599 758 q 452 749 485 758 q 393 722 419 739 q 345 684 367 706 q 306 639 324 663 l 306 744 l 94 744 l 94 0 l 306 0 l 306 415 q 340 528 306 490 q 433 567 374 567 q 525 528 493 567 q 557 415 557 490 l 557 0 l 768 0 l 768 415 q 802 528 768 490 q 896 567 836 567 q 988 528 956 567 q 1019 415 1019 490 l 1019 0 l 1231 0 z "},"n":{"ha":865,"x_min":94,"x_max":776,"o":"m 776 0 l 776 482 q 710 685 776 611 q 524 758 644 758 q 451 749 483 758 q 393 722 419 739 q 345 684 367 706 q 306 639 324 663 l 306 744 l 94 744 l 94 0 l 306 0 l 306 415 q 341 528 306 490 q 438 567 376 567 q 532 528 499 567 q 565 415 565 490 l 565 0 l 776 0 z "},"o":{"ha":922,"x_min":58,"x_max":864,"o":"m 864 371 l 864 374 q 833 524 864 454 q 749 647 803 594 q 622 728 696 699 q 463 758 549 758 q 301 728 375 758 q 174 644 228 697 q 89 522 119 592 q 58 371 58 451 l 58 368 q 89 217 58 288 q 173 95 119 147 q 300 13 226 43 q 460 -17 374 -17 q 621 14 547 -17 q 749 97 694 44 q 833 220 803 150 q 864 371 864 290 m 656 368 q 642 290 656 326 q 604 225 629 253 q 544 181 579 197 q 463 165 508 165 q 383 182 418 165 q 321 227 347 199 q 281 292 294 256 q 267 371 267 329 l 267 374 q 280 452 267 415 q 318 517 293 489 q 378 560 343 544 q 460 576 414 576 q 539 560 503 576 q 601 515 575 543 q 642 449 628 486 q 656 371 656 413 l 656 368 z "},"p":{"ha":938,"x_min":94,"x_max":876,"o":"m 876 371 l 876 374 q 848 538 876 467 q 772 659 819 610 q 664 733 725 708 q 538 758 603 758 q 399 724 454 758 q 306 638 344 690 l 306 744 l 94 744 l 94 -222 l 306 -222 l 306 97 q 398 19 343 53 q 538 -14 453 -14 q 665 11 604 -14 q 773 85 726 36 q 848 206 819 135 q 876 371 876 278 m 665 371 q 651 286 665 324 q 611 222 636 249 q 553 180 586 194 q 483 165 521 165 q 413 180 446 165 q 356 222 381 194 q 317 287 332 249 q 303 371 303 325 l 303 374 q 317 458 303 419 q 356 523 332 496 q 413 565 381 550 q 483 579 446 579 q 553 565 521 579 q 611 523 586 550 q 651 458 636 496 q 665 374 665 419 l 665 371 z "},"q":{"ha":938,"x_min":61,"x_max":843,"o":"m 843 -222 l 843 744 l 632 744 l 632 647 q 540 725 594 692 q 400 758 485 758 q 272 733 333 758 q 165 659 211 708 q 90 538 118 610 q 61 374 61 467 l 61 371 q 90 206 61 278 q 165 85 118 135 q 274 11 213 36 q 400 -14 335 -14 q 538 20 483 -14 q 632 107 593 54 l 632 -222 l 843 -222 m 635 371 q 620 287 635 325 q 581 222 606 249 q 524 180 557 194 q 454 165 492 165 q 384 180 417 165 q 326 222 351 194 q 287 287 301 249 q 272 371 272 325 l 272 374 q 287 458 272 421 q 326 523 301 496 q 384 565 351 550 q 454 579 417 579 q 524 565 492 579 q 581 523 557 550 q 620 458 606 496 q 635 374 635 419 l 635 371 z "},"r":{"ha":581,"x_min":94,"x_max":543,"o":"m 543 538 l 543 758 q 393 717 449 763 q 306 594 338 671 l 306 744 l 94 744 l 94 0 l 306 0 l 306 275 q 366 474 306 410 q 532 538 426 538 l 543 538 z "},"s":{"ha":697,"x_min":36,"x_max":640,"o":"m 640 226 l 640 229 q 619 317 640 281 q 567 378 599 353 q 494 420 535 403 q 415 450 454 438 q 358 469 385 460 q 310 490 331 479 q 276 512 289 500 q 264 539 264 524 l 264 542 q 283 578 264 564 q 342 593 303 593 q 435 574 382 593 q 543 524 488 556 l 624 669 q 490 733 563 710 q 346 756 417 756 q 240 740 289 756 q 153 694 190 725 q 95 620 117 664 q 74 519 74 576 l 74 517 q 94 425 74 463 q 146 362 114 388 q 217 320 178 336 q 296 293 257 304 q 354 275 326 283 q 403 258 382 267 q 438 236 425 249 q 450 207 450 224 l 450 204 q 428 164 450 179 q 361 149 407 149 q 248 171 308 149 q 126 238 188 193 l 36 99 q 194 13 111 40 q 356 -14 276 -14 q 467 1 415 -14 q 558 44 519 15 q 619 119 597 74 q 640 226 640 164 z "},"t":{"ha":576,"x_min":40,"x_max":515,"o":"m 513 31 l 513 200 q 408 174 464 174 q 340 246 340 174 l 340 564 l 515 564 l 515 744 l 340 744 l 340 935 l 129 935 l 129 744 l 40 744 l 40 564 l 129 564 l 129 211 q 145 103 129 146 q 190 35 161 61 q 258 -2 218 8 q 346 -12 297 -12 q 439 -1 399 -12 q 513 31 479 11 z "},"u":{"ha":865,"x_min":89,"x_max":771,"o":"m 771 0 l 771 744 l 560 744 l 560 329 q 524 216 560 254 q 428 178 489 178 q 333 216 367 178 q 300 329 300 254 l 300 744 l 89 744 l 89 263 q 155 60 89 133 q 342 -14 221 -14 q 414 -4 382 -14 q 472 22 446 6 q 520 60 499 39 q 560 106 542 82 l 560 0 l 771 0 z "},"v":{"ha":833,"x_min":28,"x_max":806,"o":"m 806 744 l 586 744 l 418 246 l 251 744 l 28 744 l 321 -6 l 513 -6 l 806 744 z "},"w":{"ha":1196,"x_min":33,"x_max":1163,"o":"m 1163 744 l 953 744 l 831 292 l 689 747 l 507 747 l 367 293 l 247 744 l 33 744 l 263 -6 l 451 -6 l 597 451 l 740 -6 l 931 -6 l 1163 744 z "},"x":{"ha":811,"x_min":32,"x_max":779,"o":"m 779 0 l 517 382 l 768 744 l 547 744 l 407 528 l 268 744 l 42 744 l 293 378 l 32 0 l 253 0 l 403 232 l 553 0 l 779 0 z "},"y":{"ha":833,"x_min":28,"x_max":803,"o":"m 803 744 l 583 744 l 421 238 l 251 744 l 28 744 l 319 -3 q 290 -41 306 -31 q 246 -51 274 -51 q 201 -43 225 -51 q 156 -22 176 -35 l 85 -175 q 169 -212 125 -199 q 272 -226 214 -226 q 356 -215 319 -226 q 420 -179 392 -204 q 472 -115 449 -154 q 517 -18 496 -75 l 803 744 z "},"z":{"ha":782,"x_min":69,"x_max":717,"o":"m 717 0 l 717 171 l 331 171 l 717 596 l 717 744 l 82 744 l 82 574 l 454 574 l 69 149 l 69 0 l 717 0 z "},"{":{"ha":681,"x_min":68,"x_max":615,"o":"m 615 853 l 578 993 q 419 951 482 976 q 320 892 357 926 q 268 815 283 858 q 253 718 253 771 q 253 697 253 710 q 255 671 254 685 q 256 644 256 657 q 257 622 257 631 q 222 510 257 540 q 104 479 186 479 l 68 479 l 68 318 l 104 318 q 222 288 186 318 q 257 175 257 257 q 256 153 257 167 q 255 126 256 140 q 253 100 254 113 q 253 79 253 88 q 268 -17 253 26 q 320 -95 283 -61 q 419 -154 357 -129 q 578 -196 482 -179 l 615 -56 q 526 -24 560 -40 q 475 11 493 -8 q 451 54 457 31 q 446 110 446 78 q 448 160 446 131 q 450 213 450 190 q 413 332 450 289 q 306 399 376 375 q 413 465 376 422 q 450 585 450 508 q 448 637 450 607 q 446 688 446 667 q 451 743 446 719 q 475 786 457 767 q 526 822 493 806 q 615 853 560 838 z "},"|":{"ha":486,"x_min":160,"x_max":326,"o":"m 326 -178 l 326 1108 l 160 1108 l 160 -178 l 326 -178 z "},"}":{"ha":681,"x_min":65,"x_max":613,"o":"m 613 318 l 613 479 l 576 479 q 459 510 494 479 q 424 622 424 540 q 424 644 424 631 q 426 671 425 657 q 427 697 426 685 q 428 718 428 710 q 413 815 428 771 q 360 892 397 858 q 261 951 324 926 q 103 993 199 976 l 65 853 q 154 822 121 838 q 206 786 188 806 q 229 743 224 767 q 235 688 235 719 q 233 637 235 667 q 231 585 231 607 q 267 465 231 508 q 375 399 304 422 q 267 332 304 375 q 231 213 231 289 q 233 160 231 190 q 235 110 235 131 q 229 54 235 78 q 206 11 224 31 q 154 -24 188 -8 q 65 -56 121 -40 l 103 -196 q 261 -154 199 -179 q 360 -95 324 -129 q 413 -17 397 -61 q 428 79 428 26 q 427 100 428 88 q 426 126 426 113 q 424 153 425 140 q 424 175 424 167 q 459 288 424 257 q 576 318 494 318 l 613 318 z "},"~":{"ha":708,"x_min":68,"x_max":640,"o":"m 640 517 l 528 551 q 497 501 513 518 q 449 483 481 483 q 407 492 429 483 q 358 510 385 500 q 302 529 332 521 q 240 538 272 538 q 177 524 204 538 q 130 485 150 510 q 95 424 110 460 q 68 346 81 389 l 181 311 q 212 362 196 344 q 260 379 228 379 q 301 371 278 379 q 350 352 324 363 q 406 333 376 342 q 468 325 436 325 q 578 377 540 325 q 640 517 617 429 z "},"Ä":{"ha":1097,"x_min":33,"x_max":1064,"o":"m 1064 0 l 647 979 l 450 979 l 33 0 l 251 0 l 340 218 l 751 218 l 840 0 l 1064 0 m 675 407 l 417 407 l 546 722 l 675 407 m 799 1049 l 799 1236 l 596 1236 l 596 1049 l 799 1049 m 501 1049 l 501 1236 l 299 1236 l 299 1049 l 501 1049 z "},"Å":{"ha":1097,"x_min":33,"x_max":1064,"o":"m 1064 0 l 658 954 q 701 1009 685 978 q 717 1076 717 1040 q 703 1140 717 1110 q 666 1191 689 1169 q 613 1226 643 1213 q 549 1239 582 1239 q 485 1226 515 1239 q 431 1191 454 1213 q 394 1140 408 1169 q 381 1076 381 1110 q 397 1009 381 1040 q 439 954 413 978 l 33 0 l 251 0 l 340 218 l 751 218 l 840 0 l 1064 0 m 635 1076 q 610 1015 635 1040 q 549 990 585 990 q 488 1015 513 990 q 463 1076 463 1040 q 488 1138 463 1113 q 549 1163 513 1163 q 610 1138 585 1163 q 635 1076 635 1113 m 675 407 l 417 407 l 546 722 l 675 407 z "},"Ç":{"ha":1025,"x_min":74,"x_max":971,"o":"m 453 -3 l 342 -167 l 518 -240 l 608 -15 q 722 1 671 -12 q 817 36 774 14 q 899 89 861 58 q 971 157 936 119 l 835 294 q 720 211 778 242 q 579 181 663 181 q 465 205 517 181 q 376 271 413 229 q 318 369 339 313 q 297 488 297 425 q 318 606 297 550 q 376 703 339 661 q 466 768 414 744 q 579 792 518 792 q 712 763 653 792 q 828 682 771 733 l 964 839 q 892 900 931 872 q 807 947 853 928 q 705 978 761 967 q 581 989 649 989 q 375 949 468 989 q 215 841 282 910 q 111 681 149 772 q 74 485 74 589 q 101 315 74 394 q 179 170 129 235 q 299 61 229 106 q 453 -3 369 17 z "},"É":{"ha":931,"x_min":117,"x_max":857,"o":"m 857 0 l 857 190 l 329 190 l 329 394 l 788 394 l 788 585 l 329 585 l 329 782 l 850 782 l 850 972 l 117 972 l 117 0 l 857 0 m 528 1049 l 706 1215 l 524 1294 l 367 1049 l 528 1049 z "},"Ñ":{"ha":1097,"x_min":117,"x_max":981,"o":"m 981 0 l 981 972 l 769 972 l 769 374 l 314 972 l 117 972 l 117 0 l 328 0 l 328 618 l 799 0 l 981 0 m 835 1240 l 722 1275 q 691 1224 707 1242 q 643 1207 675 1207 q 601 1215 624 1207 q 553 1234 579 1224 q 497 1253 526 1244 q 435 1261 467 1261 q 372 1247 399 1261 q 324 1208 344 1233 q 290 1148 304 1183 q 263 1069 275 1113 l 375 1035 q 406 1085 390 1068 q 454 1103 422 1103 q 495 1094 472 1103 q 544 1076 518 1086 q 601 1057 571 1065 q 663 1049 631 1049 q 773 1101 735 1049 q 835 1240 811 1153 z "},"Ö":{"ha":1181,"x_min":74,"x_max":1107,"o":"m 1107 486 l 1107 489 q 1069 684 1107 593 q 962 842 1031 775 q 799 949 893 910 q 592 989 704 989 q 384 949 479 989 q 220 841 289 910 q 113 681 151 772 q 74 486 74 590 l 74 483 q 112 288 74 379 q 219 130 150 197 q 382 23 288 63 q 589 -17 476 -17 q 797 23 701 -17 q 960 131 892 63 q 1068 291 1029 200 q 1107 486 1107 382 m 883 483 q 862 366 883 421 q 802 269 840 311 q 710 204 764 228 q 592 181 656 181 q 473 205 526 181 q 380 271 419 229 q 319 368 340 313 q 297 486 297 424 l 297 489 q 319 606 297 551 q 378 703 340 661 q 470 768 417 744 q 589 792 524 792 q 707 767 653 792 q 801 701 761 743 q 862 604 840 660 q 883 486 883 549 l 883 483 m 840 1049 l 840 1236 l 638 1236 l 638 1049 l 840 1049 m 543 1049 l 543 1236 l 340 1236 l 340 1049 l 543 1049 z "},"Ü":{"ha":1050,"x_min":101,"x_max":949,"o":"m 949 424 l 949 972 l 735 972 l 735 415 q 679 240 735 299 q 525 182 624 182 q 371 242 426 182 q 315 422 315 303 l 315 972 l 101 972 l 101 417 q 214 93 101 201 q 522 -15 326 -15 q 699 12 619 -15 q 833 94 778 39 q 919 231 889 149 q 949 424 949 313 m 775 1049 l 775 1236 l 572 1236 l 572 1049 l 775 1049 m 478 1049 l 478 1236 l 275 1236 l 275 1049 l 478 1049 z "},"á":{"ha":822,"x_min":50,"x_max":735,"o":"m 735 0 l 735 432 q 656 668 735 583 q 403 753 576 753 q 242 736 308 753 q 114 693 175 719 l 167 532 q 265 562 218 551 q 372 572 311 572 q 492 538 451 572 q 532 436 532 503 l 532 424 q 449 446 492 438 q 350 454 407 454 q 228 440 283 454 q 134 396 174 425 q 72 322 94 367 q 50 217 50 278 l 50 214 q 70 116 50 158 q 125 44 90 74 q 206 1 160 15 q 306 -14 253 -14 q 438 12 383 -14 q 531 81 492 38 l 531 0 l 735 0 m 535 263 q 490 168 535 204 q 369 132 444 132 q 286 156 318 132 q 254 222 254 179 l 254 225 q 293 301 254 275 q 400 328 332 328 q 473 320 439 328 q 535 300 507 313 l 535 263 m 476 826 l 654 993 l 472 1072 l 315 826 l 476 826 z "},"à":{"ha":822,"x_min":50,"x_max":735,"o":"m 735 0 l 735 432 q 656 668 735 583 q 403 753 576 753 q 242 736 308 753 q 114 693 175 719 l 167 532 q 265 562 218 551 q 372 572 311 572 q 492 538 451 572 q 532 436 532 503 l 532 424 q 449 446 492 438 q 350 454 407 454 q 228 440 283 454 q 134 396 174 425 q 72 322 94 367 q 50 217 50 278 l 50 214 q 70 116 50 158 q 125 44 90 74 q 206 1 160 15 q 306 -14 253 -14 q 438 12 383 -14 q 531 81 492 38 l 531 0 l 735 0 m 535 263 q 490 168 535 204 q 369 132 444 132 q 286 156 318 132 q 254 222 254 179 l 254 225 q 293 301 254 275 q 400 328 332 328 q 473 320 439 328 q 535 300 507 313 l 535 263 m 514 826 l 357 1072 l 175 993 l 353 826 l 514 826 z "},"â":{"ha":822,"x_min":50,"x_max":735,"o":"m 735 0 l 735 432 q 656 668 735 583 q 403 753 576 753 q 242 736 308 753 q 114 693 175 719 l 167 532 q 265 562 218 551 q 372 572 311 572 q 492 538 451 572 q 532 436 532 503 l 532 424 q 449 446 492 438 q 350 454 407 454 q 228 440 283 454 q 134 396 174 425 q 72 322 94 367 q 50 217 50 278 l 50 214 q 70 116 50 158 q 125 44 90 74 q 206 1 160 15 q 306 -14 253 -14 q 438 12 383 -14 q 531 81 492 38 l 531 0 l 735 0 m 535 263 q 490 168 535 204 q 369 132 444 132 q 286 156 318 132 q 254 222 254 179 l 254 225 q 293 301 254 275 q 400 328 332 328 q 473 320 439 328 q 535 300 507 313 l 535 263 m 407 918 l 517 826 l 679 826 l 508 1044 l 308 1044 l 138 826 l 297 826 l 407 918 z "},"ä":{"ha":822,"x_min":50,"x_max":735,"o":"m 735 0 l 735 432 q 656 668 735 583 q 403 753 576 753 q 242 736 308 753 q 114 693 175 719 l 167 532 q 265 562 218 551 q 372 572 311 572 q 492 538 451 572 q 532 436 532 503 l 532 424 q 449 446 492 438 q 350 454 407 454 q 228 440 283 454 q 134 396 174 425 q 72 322 94 367 q 50 217 50 278 l 50 214 q 70 116 50 158 q 125 44 90 74 q 206 1 160 15 q 306 -14 253 -14 q 438 12 383 -14 q 531 81 492 38 l 531 0 l 735 0 m 535 263 q 490 168 535 204 q 369 132 444 132 q 286 156 318 132 q 254 222 254 179 l 254 225 q 293 301 254 275 q 400 328 332 328 q 473 320 439 328 q 535 300 507 313 l 535 263 m 658 826 l 658 1014 l 456 1014 l 456 826 l 658 826 m 361 826 l 361 1014 l 158 1014 l 158 826 l 361 826 z "},"ã":{"ha":822,"x_min":50,"x_max":735,"o":"m 735 0 l 735 432 q 656 668 735 583 q 403 753 576 753 q 242 736 308 753 q 114 693 175 719 l 167 532 q 265 562 218 551 q 372 572 311 572 q 492 538 451 572 q 532 436 532 503 l 532 424 q 449 446 492 438 q 350 454 407 454 q 228 440 283 454 q 134 396 174 425 q 72 322 94 367 q 50 217 50 278 l 50 214 q 70 116 50 158 q 125 44 90 74 q 206 1 160 15 q 306 -14 253 -14 q 438 12 383 -14 q 531 81 492 38 l 531 0 l 735 0 m 535 263 q 490 168 535 204 q 369 132 444 132 q 286 156 318 132 q 254 222 254 179 l 254 225 q 293 301 254 275 q 400 328 332 328 q 473 320 439 328 q 535 300 507 313 l 535 263 m 697 1018 l 585 1053 q 553 1002 569 1019 q 506 985 538 985 q 464 993 486 985 q 415 1012 442 1001 q 359 1031 389 1022 q 297 1039 329 1039 q 234 1025 261 1039 q 187 986 207 1011 q 152 926 167 961 q 125 847 138 890 l 238 813 q 269 863 253 846 q 317 881 285 881 q 358 872 335 881 q 407 853 381 864 q 463 835 433 843 q 525 826 493 826 q 635 878 597 826 q 697 1018 674 931 z "},"å":{"ha":822,"x_min":50,"x_max":735,"o":"m 735 0 l 735 432 q 656 668 735 583 q 403 753 576 753 q 242 736 308 753 q 114 693 175 719 l 167 532 q 265 562 218 551 q 372 572 311 572 q 492 538 451 572 q 532 436 532 503 l 532 424 q 449 446 492 438 q 350 454 407 454 q 228 440 283 454 q 134 396 174 425 q 72 322 94 367 q 50 217 50 278 l 50 214 q 70 116 50 158 q 125 44 90 74 q 206 1 160 15 q 306 -14 253 -14 q 438 12 383 -14 q 531 81 492 38 l 531 0 l 735 0 m 535 263 q 490 168 535 204 q 369 132 444 132 q 286 156 318 132 q 254 222 254 179 l 254 225 q 293 301 254 275 q 400 328 332 328 q 473 320 439 328 q 535 300 507 313 l 535 263 m 576 986 q 563 1049 576 1019 q 526 1101 549 1079 q 472 1135 503 1122 q 408 1149 442 1149 q 344 1135 375 1149 q 291 1101 314 1122 q 254 1049 268 1079 q 240 986 240 1019 q 254 923 240 953 q 291 872 268 893 q 344 837 314 850 q 408 824 375 824 q 472 837 442 824 q 526 872 503 850 q 563 923 549 893 q 576 986 576 953 m 494 986 q 469 925 494 950 q 408 900 444 900 q 347 925 372 900 q 322 986 322 950 q 347 1047 322 1022 q 408 1072 372 1072 q 469 1047 444 1072 q 494 986 494 1022 z "},"ç":{"ha":793,"x_min":58,"x_max":750,"o":"m 328 0 l 214 -167 l 390 -240 l 481 -15 q 638 28 576 -8 q 750 119 700 65 l 626 244 q 548 187 588 208 q 456 165 508 165 q 378 181 413 165 q 318 226 343 197 q 280 292 293 254 q 267 372 267 329 q 280 451 267 414 q 317 516 293 488 q 374 560 342 544 q 447 576 407 576 q 542 554 504 576 q 617 494 581 532 l 746 633 q 624 725 693 692 q 449 758 554 758 q 291 728 363 758 q 168 644 219 697 q 88 521 117 592 q 58 369 58 450 q 78 245 58 304 q 133 138 97 186 q 217 53 168 89 q 328 0 267 18 z "},"é":{"ha":851,"x_min":58,"x_max":789,"o":"m 789 351 l 789 354 q 767 506 789 433 q 701 635 746 579 q 588 725 656 692 q 426 758 519 758 q 277 728 344 758 q 161 644 210 697 q 85 521 113 592 q 58 371 58 450 l 58 368 q 88 212 58 282 q 169 90 117 142 q 292 11 221 39 q 447 -17 364 -17 q 624 20 549 -17 q 751 122 699 57 l 631 229 q 544 171 586 189 q 450 153 503 153 q 331 190 379 153 q 268 299 283 226 l 786 299 q 788 325 788 314 q 789 351 789 336 m 583 431 l 265 431 q 319 546 278 503 q 426 589 360 589 q 533 545 493 589 q 583 431 574 501 m 503 826 l 681 993 l 499 1072 l 342 826 l 503 826 z "},"è":{"ha":851,"x_min":58,"x_max":789,"o":"m 789 351 l 789 354 q 767 506 789 433 q 701 635 746 579 q 588 725 656 692 q 426 758 519 758 q 277 728 344 758 q 161 644 210 697 q 85 521 113 592 q 58 371 58 450 l 58 368 q 88 212 58 282 q 169 90 117 142 q 292 11 221 39 q 447 -17 364 -17 q 624 20 549 -17 q 751 122 699 57 l 631 229 q 544 171 586 189 q 450 153 503 153 q 331 190 379 153 q 268 299 283 226 l 786 299 q 788 325 788 314 q 789 351 789 336 m 583 431 l 265 431 q 319 546 278 503 q 426 589 360 589 q 533 545 493 589 q 583 431 574 501 m 508 826 l 351 1072 l 169 993 l 347 826 l 508 826 z "},"ê":{"ha":851,"x_min":58,"x_max":789,"o":"m 789 351 l 789 354 q 767 506 789 433 q 701 635 746 579 q 588 725 656 692 q 426 758 519 758 q 277 728 344 758 q 161 644 210 697 q 85 521 113 592 q 58 371 58 450 l 58 368 q 88 212 58 282 q 169 90 117 142 q 292 11 221 39 q 447 -17 364 -17 q 624 20 549 -17 q 751 122 699 57 l 631 229 q 544 171 586 189 q 450 153 503 153 q 331 190 379 153 q 268 299 283 226 l 786 299 q 788 325 788 314 q 789 351 789 336 m 583 431 l 265 431 q 319 546 278 503 q 426 589 360 589 q 533 545 493 589 q 583 431 574 501 m 424 918 l 533 826 l 696 826 l 525 1044 l 325 1044 l 154 826 l 314 826 l 424 918 z "},"ë":{"ha":851,"x_min":58,"x_max":789,"o":"m 789 351 l 789 354 q 767 506 789 433 q 701 635 746 579 q 588 725 656 692 q 426 758 519 758 q 277 728 344 758 q 161 644 210 697 q 85 521 113 592 q 58 371 58 450 l 58 368 q 88 212 58 282 q 169 90 117 142 q 292 11 221 39 q 447 -17 364 -17 q 624 20 549 -17 q 751 122 699 57 l 631 229 q 544 171 586 189 q 450 153 503 153 q 331 190 379 153 q 268 299 283 226 l 786 299 q 788 325 788 314 q 789 351 789 336 m 583 431 l 265 431 q 319 546 278 503 q 426 589 360 589 q 533 545 493 589 q 583 431 574 501 m 675 826 l 675 1014 l 472 1014 l 472 826 l 675 826 m 378 826 l 378 1014 l 175 1014 l 175 826 l 378 826 z "},"í":{"ha":419,"x_min":104,"x_max":458,"o":"m 315 0 l 315 744 l 104 744 l 104 0 l 315 0 m 281 826 l 458 993 l 276 1072 l 119 826 l 281 826 z "},"ì":{"ha":419,"x_min":104,"x_max":444,"o":"m 315 0 l 315 744 l 104 744 l 104 0 l 315 0 m 444 826 l 288 1072 l 106 993 l 283 826 l 444 826 z "},"î":{"ha":419,"x_min":104,"x_max":646,"o":"m 315 0 l 315 744 l 104 744 l 104 0 l 315 0 m 374 918 l 483 826 l 646 826 l 475 1044 l 275 1044 l 104 826 l 264 826 l 374 918 z "},"ï":{"ha":419,"x_min":104,"x_max":604,"o":"m 315 0 l 315 744 l 104 744 l 104 0 l 315 0 m 604 826 l 604 1014 l 401 1014 l 401 826 l 604 826 m 307 826 l 307 1014 l 104 1014 l 104 826 l 307 826 z "},"ñ":{"ha":865,"x_min":94,"x_max":776,"o":"m 776 0 l 776 482 q 710 685 776 611 q 524 758 644 758 q 451 749 483 758 q 393 722 419 739 q 345 684 367 706 q 306 639 324 663 l 306 744 l 94 744 l 94 0 l 306 0 l 306 415 q 341 528 306 490 q 438 567 376 567 q 532 528 499 567 q 565 415 565 490 l 565 0 l 776 0 m 725 1018 l 613 1053 q 581 1002 597 1019 q 533 985 565 985 q 492 993 514 985 q 443 1012 469 1001 q 387 1031 417 1022 q 325 1039 357 1039 q 262 1025 289 1039 q 215 986 235 1011 q 180 926 194 961 q 153 847 165 890 l 265 813 q 297 863 281 846 q 344 881 313 881 q 385 872 363 881 q 435 853 408 864 q 491 835 461 843 q 553 826 521 826 q 663 878 625 826 q 725 1018 701 931 z "},"ó":{"ha":922,"x_min":58,"x_max":864,"o":"m 864 371 l 864 374 q 833 524 864 454 q 749 647 803 594 q 622 728 696 699 q 463 758 549 758 q 301 728 375 758 q 174 644 228 697 q 89 522 119 592 q 58 371 58 451 l 58 368 q 89 217 58 288 q 173 95 119 147 q 300 13 226 43 q 460 -17 374 -17 q 621 14 547 -17 q 749 97 694 44 q 833 220 803 150 q 864 371 864 290 m 656 368 q 642 290 656 326 q 604 225 629 253 q 544 181 579 197 q 463 165 508 165 q 383 182 418 165 q 321 227 347 199 q 281 292 294 256 q 267 371 267 329 l 267 374 q 280 452 267 415 q 318 517 293 489 q 378 560 343 544 q 460 576 414 576 q 539 560 503 576 q 601 515 575 543 q 642 449 628 486 q 656 371 656 413 l 656 368 m 542 826 l 719 993 l 538 1072 l 381 826 l 542 826 z "},"ò":{"ha":922,"x_min":58,"x_max":864,"o":"m 864 371 l 864 374 q 833 524 864 454 q 749 647 803 594 q 622 728 696 699 q 463 758 549 758 q 301 728 375 758 q 174 644 228 697 q 89 522 119 592 q 58 371 58 451 l 58 368 q 89 217 58 288 q 173 95 119 147 q 300 13 226 43 q 460 -17 374 -17 q 621 14 547 -17 q 749 97 694 44 q 833 220 803 150 q 864 371 864 290 m 656 368 q 642 290 656 326 q 604 225 629 253 q 544 181 579 197 q 463 165 508 165 q 383 182 418 165 q 321 227 347 199 q 281 292 294 256 q 267 371 267 329 l 267 374 q 280 452 267 415 q 318 517 293 489 q 378 560 343 544 q 460 576 414 576 q 539 560 503 576 q 601 515 575 543 q 642 449 628 486 q 656 371 656 413 l 656 368 m 542 826 l 385 1072 l 203 993 l 381 826 l 542 826 z "},"ô":{"ha":922,"x_min":58,"x_max":864,"o":"m 864 371 l 864 374 q 833 524 864 454 q 749 647 803 594 q 622 728 696 699 q 463 758 549 758 q 301 728 375 758 q 174 644 228 697 q 89 522 119 592 q 58 371 58 451 l 58 368 q 89 217 58 288 q 173 95 119 147 q 300 13 226 43 q 460 -17 374 -17 q 621 14 547 -17 q 749 97 694 44 q 833 220 803 150 q 864 371 864 290 m 656 368 q 642 290 656 326 q 604 225 629 253 q 544 181 579 197 q 463 165 508 165 q 383 182 418 165 q 321 227 347 199 q 281 292 294 256 q 267 371 267 329 l 267 374 q 280 452 267 415 q 318 517 293 489 q 378 560 343 544 q 460 576 414 576 q 539 560 503 576 q 601 515 575 543 q 642 449 628 486 q 656 371 656 413 l 656 368 m 460 918 l 569 826 l 732 826 l 561 1044 l 361 1044 l 190 826 l 350 826 l 460 918 z "},"ö":{"ha":922,"x_min":58,"x_max":864,"o":"m 864 371 l 864 374 q 833 524 864 454 q 749 647 803 594 q 622 728 696 699 q 463 758 549 758 q 301 728 375 758 q 174 644 228 697 q 89 522 119 592 q 58 371 58 451 l 58 368 q 89 217 58 288 q 173 95 119 147 q 300 13 226 43 q 460 -17 374 -17 q 621 14 547 -17 q 749 97 694 44 q 833 220 803 150 q 864 371 864 290 m 656 368 q 642 290 656 326 q 604 225 629 253 q 544 181 579 197 q 463 165 508 165 q 383 182 418 165 q 321 227 347 199 q 281 292 294 256 q 267 371 267 329 l 267 374 q 280 452 267 415 q 318 517 293 489 q 378 560 343 544 q 460 576 414 576 q 539 560 503 576 q 601 515 575 543 q 642 449 628 486 q 656 371 656 413 l 656 368 m 711 826 l 711 1014 l 508 1014 l 508 826 l 711 826 m 414 826 l 414 1014 l 211 1014 l 211 826 l 414 826 z "},"õ":{"ha":922,"x_min":58,"x_max":864,"o":"m 864 371 l 864 374 q 833 524 864 454 q 749 647 803 594 q 622 728 696 699 q 463 758 549 758 q 301 728 375 758 q 174 644 228 697 q 89 522 119 592 q 58 371 58 451 l 58 368 q 89 217 58 288 q 173 95 119 147 q 300 13 226 43 q 460 -17 374 -17 q 621 14 547 -17 q 749 97 694 44 q 833 220 803 150 q 864 371 864 290 m 656 368 q 642 290 656 326 q 604 225 629 253 q 544 181 579 197 q 463 165 508 165 q 383 182 418 165 q 321 227 347 199 q 281 292 294 256 q 267 371 267 329 l 267 374 q 280 452 267 415 q 318 517 293 489 q 378 560 343 544 q 460 576 414 576 q 539 560 503 576 q 601 515 575 543 q 642 449 628 486 q 656 371 656 413 l 656 368 m 747 1018 l 635 1053 q 603 1002 619 1019 q 556 985 588 985 q 514 993 536 985 q 465 1012 492 1001 q 409 1031 439 1022 q 347 1039 379 1039 q 284 1025 311 1039 q 237 986 257 1011 q 202 926 217 961 q 175 847 188 890 l 288 813 q 319 863 303 846 q 367 881 335 881 q 408 872 385 881 q 457 853 431 864 q 513 835 483 843 q 575 826 543 826 q 685 878 647 826 q 747 1018 724 931 z "},"ú":{"ha":865,"x_min":89,"x_max":771,"o":"m 771 0 l 771 744 l 560 744 l 560 329 q 524 216 560 254 q 428 178 489 178 q 333 216 367 178 q 300 329 300 254 l 300 744 l 89 744 l 89 263 q 155 60 89 133 q 342 -14 221 -14 q 414 -4 382 -14 q 472 22 446 6 q 520 60 499 39 q 560 106 542 82 l 560 0 l 771 0 m 490 826 l 668 993 l 486 1072 l 329 826 l 490 826 z "},"ù":{"ha":865,"x_min":89,"x_max":771,"o":"m 771 0 l 771 744 l 560 744 l 560 329 q 524 216 560 254 q 428 178 489 178 q 333 216 367 178 q 300 329 300 254 l 300 744 l 89 744 l 89 263 q 155 60 89 133 q 342 -14 221 -14 q 414 -4 382 -14 q 472 22 446 6 q 520 60 499 39 q 560 106 542 82 l 560 0 l 771 0 m 535 826 l 378 1072 l 196 993 l 374 826 l 535 826 z "},"û":{"ha":865,"x_min":89,"x_max":771,"o":"m 771 0 l 771 744 l 560 744 l 560 329 q 524 216 560 254 q 428 178 489 178 q 333 216 367 178 q 300 329 300 254 l 300 744 l 89 744 l 89 263 q 155 60 89 133 q 342 -14 221 -14 q 414 -4 382 -14 q 472 22 446 6 q 520 60 499 39 q 560 106 542 82 l 560 0 l 771 0 m 431 918 l 540 826 l 703 826 l 532 1044 l 332 1044 l 161 826 l 321 826 l 431 918 z "},"ü":{"ha":865,"x_min":89,"x_max":771,"o":"m 771 0 l 771 744 l 560 744 l 560 329 q 524 216 560 254 q 428 178 489 178 q 333 216 367 178 q 300 329 300 254 l 300 744 l 89 744 l 89 263 q 155 60 89 133 q 342 -14 221 -14 q 414 -4 382 -14 q 472 22 446 6 q 520 60 499 39 q 560 106 542 82 l 560 0 l 771 0 m 682 826 l 682 1014 l 479 1014 l 479 826 l 682 826 m 385 826 l 385 1014 l 182 1014 l 182 826 l 385 826 z "},"†":{"ha":569,"x_min":74,"x_max":496,"o":"m 329 706 l 496 692 l 496 807 l 331 793 l 349 972 l 221 972 l 239 793 l 74 807 l 74 692 l 240 706 l 226 331 l 343 331 l 329 706 z "},"°":{"ha":667,"x_min":93,"x_max":574,"o":"m 574 746 q 554 835 574 793 q 501 910 535 878 q 424 962 468 943 q 333 981 381 981 q 242 962 286 981 q 165 910 199 943 q 113 835 132 878 q 93 746 93 793 q 113 656 93 699 q 165 581 132 614 q 242 530 199 549 q 333 511 286 511 q 424 530 381 511 q 501 581 468 549 q 554 656 535 614 q 574 746 574 699 m 461 746 q 451 696 461 719 q 425 654 442 672 q 385 626 408 636 q 333 615 361 615 q 282 626 306 615 q 242 654 258 636 q 215 696 225 672 q 206 746 206 719 q 215 796 206 772 q 242 838 225 819 q 282 866 258 856 q 333 876 306 876 q 385 866 361 876 q 425 838 408 856 q 451 796 442 819 q 461 746 461 772 z "},"¢":{"ha":807,"x_min":65,"x_max":753,"o":"m 483 289 l 560 672 q 595 650 579 663 q 628 621 611 638 l 753 756 q 685 817 721 790 q 603 858 649 843 l 626 981 l 482 981 l 463 881 l 454 881 q 298 850 369 881 q 175 767 226 819 q 94 643 124 714 q 65 492 65 572 q 83 372 65 429 q 135 267 101 314 q 214 184 168 219 q 315 128 260 149 l 289 -8 l 433 -8 l 456 106 q 628 147 557 108 q 753 246 699 185 l 633 367 q 564 315 600 335 q 483 289 528 294 m 433 699 l 358 314 q 292 389 315 342 q 269 494 269 436 q 281 570 269 535 q 315 633 293 606 q 367 678 336 661 q 433 699 397 696 z "},"£":{"ha":894,"x_min":83,"x_max":831,"o":"m 189 547 l 83 547 l 83 371 l 189 371 l 189 175 l 83 140 l 83 0 l 828 0 l 828 185 l 406 185 l 406 371 l 722 371 l 722 547 l 406 547 l 406 654 q 437 752 406 717 q 521 788 468 788 q 599 765 565 788 q 668 696 632 742 l 831 826 q 776 889 806 860 q 708 940 746 918 q 624 974 671 961 q 518 986 576 986 q 274 900 358 986 q 189 660 189 814 l 189 547 z "},"§":{"ha":878,"x_min":76,"x_max":801,"o":"m 801 494 q 784 565 801 535 q 729 620 767 596 q 633 665 692 644 q 493 703 575 685 q 413 723 443 714 q 367 741 383 732 q 346 759 351 750 q 340 781 340 768 q 363 818 340 804 q 432 832 385 832 q 539 808 490 832 q 636 740 588 785 l 750 854 q 613 952 692 918 q 426 986 533 986 q 216 928 290 986 q 142 769 142 869 q 156 699 142 733 q 200 642 169 665 q 112 585 147 622 q 76 478 76 547 q 94 407 76 438 q 149 352 111 376 q 244 308 186 328 q 385 269 303 288 q 465 249 435 258 q 510 231 494 240 q 532 213 526 222 q 538 192 538 204 q 515 154 538 168 q 446 140 493 140 q 339 164 388 140 q 242 232 290 188 l 128 118 q 265 20 186 54 q 451 -14 344 -14 q 662 44 588 -14 q 736 203 736 103 q 722 273 736 239 q 678 331 708 307 q 766 388 731 350 q 801 494 801 425 m 617 464 q 597 419 617 436 q 540 401 576 401 q 487 407 518 401 q 401 426 456 413 q 295 463 329 444 q 261 508 261 481 q 281 553 261 536 q 338 571 301 571 q 391 565 360 571 q 476 546 422 560 q 583 510 549 528 q 617 464 617 492 z "},"•":{"ha":694,"x_min":140,"x_max":554,"o":"m 554 489 q 538 569 554 532 q 493 635 521 607 q 428 679 465 663 q 347 696 390 696 q 267 679 304 696 q 201 635 229 663 q 156 569 172 607 q 140 489 140 532 q 156 408 140 446 q 201 342 172 371 q 267 298 229 314 q 347 282 304 282 q 428 298 390 282 q 493 342 465 314 q 538 408 521 371 q 554 489 554 446 z "},"¶":{"ha":819,"x_min":49,"x_max":703,"o":"m 432 972 q 276 950 346 972 q 155 885 206 928 q 76 782 104 843 q 49 644 49 721 q 79 502 49 563 q 165 401 110 442 q 294 340 219 360 q 456 319 368 319 l 489 319 l 489 0 l 703 0 l 703 972 l 432 972 z "},"ß":{"ha":861,"x_min":94,"x_max":801,"o":"m 746 753 q 726 859 746 810 q 666 945 706 908 q 569 1003 626 982 q 436 1024 511 1024 q 295 1001 358 1024 q 188 938 232 979 q 119 835 143 896 q 94 699 94 775 l 94 0 l 304 0 l 304 707 q 338 808 304 771 q 426 846 372 846 q 508 816 478 846 q 538 733 538 786 q 502 633 538 675 q 415 560 467 592 l 415 421 q 542 376 492 410 q 593 285 593 343 q 547 192 593 224 q 415 156 501 160 l 415 -3 q 574 10 503 -7 q 697 64 646 28 q 774 154 747 100 q 801 278 801 208 q 786 367 801 328 q 746 437 771 407 q 688 488 721 467 q 619 525 656 510 q 669 564 646 543 q 709 612 692 585 q 736 673 726 639 q 746 753 746 707 z "},"®":{"ha":1153,"x_min":74,"x_max":1079,"o":"m 1079 488 q 1040 682 1079 590 q 934 842 1001 774 q 775 949 867 910 q 578 989 683 989 q 380 949 472 989 q 219 840 288 908 q 113 679 151 771 q 74 485 74 588 q 113 290 74 382 q 219 131 151 199 q 378 23 286 63 q 575 -17 469 -17 q 773 24 681 -17 q 933 133 865 64 q 1040 293 1001 201 q 1079 488 1079 385 m 1021 488 q 987 313 1021 394 q 893 171 953 232 q 752 74 833 110 q 575 39 671 39 q 399 74 481 39 q 258 169 318 108 q 165 310 199 229 q 132 485 132 392 q 166 659 132 578 q 260 801 200 740 q 401 898 319 863 q 578 933 482 933 q 753 899 672 933 q 894 803 835 864 q 987 662 953 743 q 1021 488 1021 581 m 817 592 q 760 722 817 675 q 607 768 703 768 l 369 768 l 369 233 l 488 233 l 488 406 l 581 406 l 694 233 l 832 233 l 701 425 q 785 485 753 444 q 817 592 817 525 m 697 585 q 674 528 697 550 q 606 507 650 507 l 488 507 l 488 664 l 603 664 q 672 644 647 664 q 697 585 697 625 z "},"©":{"ha":1153,"x_min":74,"x_max":1079,"o":"m 1079 488 q 1040 682 1079 590 q 934 842 1001 774 q 775 949 867 910 q 578 989 683 989 q 380 949 472 989 q 219 840 288 908 q 113 679 151 771 q 74 485 74 588 q 113 290 74 382 q 219 131 151 199 q 378 23 286 63 q 575 -17 469 -17 q 773 24 681 -17 q 933 133 865 64 q 1040 293 1001 201 q 1079 488 1079 385 m 1021 488 q 987 313 1021 394 q 893 171 953 232 q 752 74 833 110 q 575 39 671 39 q 399 74 481 39 q 258 169 318 108 q 165 310 199 229 q 132 485 132 392 q 166 659 132 578 q 260 801 200 740 q 401 898 319 863 q 578 933 482 933 q 753 899 672 933 q 894 803 835 864 q 987 662 953 743 q 1021 488 1021 581 m 801 313 l 724 390 q 661 345 692 363 q 586 328 631 328 q 524 341 553 328 q 476 376 496 354 q 444 429 456 399 q 433 493 433 460 q 444 558 433 528 q 476 610 456 588 q 525 645 497 632 q 586 658 553 658 q 658 642 625 658 q 721 599 690 626 l 797 688 q 711 747 760 724 q 586 769 663 769 q 474 747 525 769 q 385 688 422 725 q 328 599 349 650 q 308 492 308 549 q 329 383 308 433 q 386 297 350 333 q 473 238 422 260 q 582 217 524 217 q 710 242 660 217 q 801 313 760 268 z "},"™":{"ha":958,"x_min":36,"x_max":907,"o":"m 815 833 l 815 544 l 907 544 l 907 972 l 807 972 l 694 792 l 582 972 l 479 972 l 479 544 l 571 544 l 571 833 l 689 646 l 697 646 l 815 833 m 261 886 l 389 886 l 389 972 l 36 972 l 36 886 l 164 886 l 164 544 l 261 544 l 261 886 z "},"´":{"ha":694,"x_min":203,"x_max":542,"o":"m 364 826 l 542 993 l 360 1072 l 203 826 l 364 826 z "},"¨":{"ha":694,"x_min":97,"x_max":597,"o":"m 597 826 l 597 1014 l 394 1014 l 394 826 l 597 826 m 300 826 l 300 1014 l 97 1014 l 97 826 l 300 826 z "},"Æ":{"ha":1451,"x_min":13,"x_max":1378,"o":"m 1378 0 l 1378 190 l 885 190 l 885 394 l 1308 394 l 1308 585 l 885 585 l 885 782 l 1371 782 l 1371 972 l 536 972 l 13 0 l 231 0 l 346 218 l 672 218 l 672 0 l 1378 0 m 672 407 l 446 407 l 647 788 l 672 788 l 672 407 z "},"Ø":{"ha":1181,"x_min":63,"x_max":1118,"o":"m 1107 488 q 1074 669 1107 585 q 982 821 1042 754 l 1118 979 l 914 979 l 860 919 q 734 971 801 953 q 592 989 667 989 q 384 949 479 989 q 220 841 289 910 q 113 681 151 772 q 74 485 74 589 q 106 303 74 388 q 199 151 139 218 l 63 -7 l 267 -7 l 321 53 q 447 1 379 19 q 589 -17 514 -17 q 797 23 701 -17 q 960 131 892 63 q 1068 292 1029 200 q 1107 488 1107 383 m 726 763 l 342 317 q 293 488 293 393 q 315 606 293 550 q 375 703 336 661 q 469 771 414 746 q 589 796 524 796 q 662 787 628 796 q 726 763 696 778 m 888 485 q 866 367 888 422 q 806 269 844 311 q 712 201 767 226 q 592 176 657 176 q 519 185 553 176 q 454 210 485 194 l 839 656 q 888 485 888 579 z "},"±":{"ha":853,"x_min":51,"x_max":792,"o":"m 792 288 q 748 422 792 374 q 638 500 704 471 q 730 585 694 532 q 765 726 765 638 q 741 833 765 785 q 671 915 717 881 q 561 969 625 950 q 418 989 497 989 q 306 976 356 989 q 214 940 256 964 q 138 884 172 917 q 69 810 103 851 l 217 685 q 307 766 261 735 q 415 797 353 797 q 519 768 482 797 q 556 693 556 739 q 517 611 556 643 q 404 579 479 579 l 292 579 l 292 401 l 399 401 q 534 374 486 401 q 582 290 582 346 q 545 206 582 238 q 439 175 508 175 q 301 206 360 175 q 194 288 243 236 l 51 149 q 219 28 122 72 q 436 -17 315 -17 q 588 6 521 -17 q 699 69 654 29 q 768 166 744 110 q 792 288 792 222 z "},"¥":{"ha":953,"x_min":19,"x_max":933,"o":"m 579 364 l 835 364 l 835 514 l 633 514 l 933 972 l 694 972 l 479 613 l 265 972 l 19 972 l 317 514 l 118 514 l 118 364 l 374 364 l 374 278 l 118 278 l 118 128 l 374 128 l 374 0 l 579 0 l 579 128 l 835 128 l 835 278 l 579 278 l 579 364 z "},"µ":{"ha":1181,"x_min":74,"x_max":1196,"o":"m 1107 488 q 1069 683 1107 592 q 962 842 1031 775 q 799 949 893 910 q 592 989 704 989 q 384 949 479 989 q 220 841 289 910 q 113 681 151 772 q 74 485 74 589 q 112 289 74 381 q 219 130 150 197 q 382 23 288 63 q 589 -17 476 -17 q 736 3 665 -17 l 882 -140 l 1196 -140 l 1196 -126 l 949 124 q 1065 287 1024 193 q 1107 488 1107 381 m 883 485 q 862 367 883 422 q 802 269 840 311 q 710 204 764 228 q 592 181 656 181 q 473 205 526 181 q 380 271 419 229 q 319 369 340 313 q 297 488 297 425 q 319 606 297 550 q 378 703 340 661 q 470 768 417 744 q 589 792 524 792 q 707 767 653 792 q 801 701 761 743 q 862 603 840 660 q 883 485 883 547 z "},"π":{"ha":1153,"x_min":74,"x_max":1079,"o":"m 1079 488 q 1040 682 1079 590 q 934 842 1001 774 q 775 949 867 910 q 578 989 683 989 q 380 949 472 989 q 219 840 288 908 q 113 679 151 771 q 74 485 74 588 q 113 290 74 382 q 219 131 151 199 q 378 23 286 63 q 575 -17 469 -17 q 773 24 681 -17 q 933 133 865 64 q 1040 293 1001 201 q 1079 488 1079 385 m 1021 488 q 987 313 1021 394 q 893 171 953 232 q 752 74 833 110 q 575 39 671 39 q 399 74 481 39 q 258 169 318 108 q 165 310 199 229 q 132 485 132 392 q 166 659 132 578 q 260 801 200 740 q 401 898 319 863 q 578 933 482 933 q 753 899 672 933 q 894 803 835 864 q 987 662 953 743 q 1021 488 1021 581 m 817 576 q 762 711 817 660 q 611 763 707 763 l 392 763 l 392 228 l 511 228 l 511 389 l 600 389 q 684 401 644 389 q 753 436 724 413 q 799 495 782 460 q 817 576 817 531 m 696 575 q 672 516 696 539 q 603 493 647 493 l 511 493 l 511 657 l 600 657 q 670 636 644 657 q 696 575 696 615 z "},"ª":{"ha":542,"x_min":68,"x_max":454,"o":"m 449 563 l 449 800 q 406 930 449 883 q 267 976 363 976 q 178 967 214 976 q 107 943 142 958 l 136 856 q 190 872 164 867 q 249 878 217 878 q 315 858 293 878 q 338 803 338 839 l 338 796 q 292 808 315 803 q 238 813 268 813 q 118 781 164 813 q 72 681 72 749 q 113 586 72 618 q 213 554 154 554 q 285 569 256 554 q 336 607 315 583 l 336 563 l 449 563 m 454 385 l 454 476 l 68 476 l 68 385 l 454 385 m 339 707 q 313 655 339 675 q 247 635 288 635 q 202 648 219 635 q 185 686 185 661 q 206 728 185 714 q 264 743 228 743 q 305 739 286 743 q 339 728 324 735 l 339 707 z "},"º":{"ha":542,"x_min":57,"x_max":485,"o":"m 485 767 q 469 850 485 811 q 424 917 453 889 q 357 963 396 946 q 272 979 318 979 q 187 963 226 979 q 119 917 147 946 q 74 849 90 888 q 57 765 57 810 q 73 682 57 721 q 117 615 89 643 q 185 569 146 586 q 269 553 224 553 q 355 569 315 553 q 423 615 394 586 q 468 683 451 644 q 485 767 485 722 m 471 385 l 471 476 l 71 476 l 71 385 l 471 385 m 371 765 q 344 686 371 719 q 272 653 318 653 q 199 687 226 653 q 171 767 171 721 q 197 846 171 813 q 269 879 224 879 q 343 845 315 879 q 371 765 371 811 z "},"æ":{"ha":1321,"x_min":50,"x_max":1258,"o":"m 633 96 q 758 13 686 43 q 917 -17 831 -17 q 1093 20 1018 -17 q 1221 122 1168 57 l 1100 229 q 1014 171 1056 189 q 919 153 972 153 q 801 190 849 153 q 738 299 754 226 l 1256 299 q 1258 326 1257 314 q 1258 353 1258 338 q 1237 506 1258 432 q 1171 635 1215 579 q 1060 725 1126 692 q 901 758 993 758 q 763 732 825 758 q 656 658 701 706 q 556 728 618 704 q 403 753 494 753 q 242 736 308 753 q 114 693 175 719 l 167 532 q 265 562 218 551 q 372 572 311 572 q 492 538 451 572 q 532 436 532 503 l 532 424 q 449 446 492 438 q 350 454 407 454 q 228 440 283 454 q 134 396 174 425 q 72 322 94 367 q 50 218 50 278 q 71 119 50 163 q 128 47 92 76 q 217 1 165 17 q 331 -14 268 -14 q 494 17 419 -14 q 633 96 569 49 m 735 431 q 788 546 747 503 q 896 589 829 589 q 1003 545 963 589 q 1053 431 1043 501 l 735 431 m 533 301 q 543 251 536 275 q 560 206 550 228 q 465 152 513 169 q 369 135 417 135 q 286 158 318 135 q 254 226 254 182 q 293 303 254 278 q 400 328 332 328 q 472 320 438 328 q 533 301 506 313 z "},"ø":{"ha":922,"x_min":38,"x_max":885,"o":"m 864 372 q 840 508 864 444 q 772 622 817 571 l 885 751 l 700 751 l 661 710 q 568 746 618 733 q 463 758 518 758 q 301 728 375 758 q 174 644 228 697 q 89 521 119 592 q 58 369 58 450 q 82 234 58 297 q 149 121 106 171 l 38 -7 l 222 -7 l 260 32 q 354 -4 304 8 q 460 -17 404 -17 q 621 14 547 -17 q 749 97 694 44 q 833 221 803 150 q 864 372 864 292 m 539 565 l 283 274 q 261 372 261 321 q 275 453 261 415 q 315 520 289 492 q 378 565 342 549 q 460 582 414 582 q 539 565 503 582 m 661 369 q 647 288 661 326 q 607 222 633 250 q 544 176 581 193 q 463 160 508 160 q 385 175 422 160 l 639 468 q 661 369 661 421 z "},"¿":{"ha":756,"x_min":51,"x_max":728,"o":"m 303 972 l 303 750 l 528 750 l 528 972 l 303 972 m 507 410 l 514 417 l 482 642 l 340 642 l 325 557 q 218 526 268 546 q 131 472 168 506 q 73 391 94 439 q 51 276 51 343 q 76 153 51 207 q 144 62 100 99 q 251 6 189 25 q 388 -12 313 -12 q 584 29 501 -12 q 728 138 667 71 l 600 278 q 501 206 551 229 q 392 182 450 182 q 297 208 331 182 q 264 282 264 233 q 319 372 264 339 q 507 410 375 404 z "},"¡":{"ha":450,"x_min":101,"x_max":349,"o":"m 113 972 l 113 750 l 338 750 l 338 972 l 113 972 m 349 0 l 349 28 l 283 642 l 167 642 l 101 28 l 101 0 l 349 0 z "},"√":{"ha":1481,"x_min":43,"x_max":1376,"o":"m 869 736 l 869 765 q 946 846 869 846 q 996 841 974 846 q 1042 828 1018 836 l 1042 1003 q 977 1018 1013 1013 q 892 1024 942 1024 q 720 966 779 1024 q 661 785 661 908 l 661 738 l 574 738 l 574 564 l 661 564 l 661 0 l 872 0 l 872 564 l 1040 564 l 1040 736 l 869 736 m 339 736 l 339 765 q 415 846 339 846 q 465 841 443 846 q 511 828 488 836 l 511 1003 q 447 1018 482 1013 q 361 1024 411 1024 q 190 966 249 1024 q 131 785 131 908 l 131 738 l 43 738 l 43 564 l 131 564 l 131 0 l 342 0 l 342 564 l 510 564 l 510 736 l 339 736 m 1376 0 l 1376 1014 l 1165 1014 l 1165 0 l 1376 0 z "},"ƒ":{"ha":744,"x_min":57,"x_max":694,"o":"m 694 788 l 694 963 q 557 979 642 979 q 373 919 432 979 q 294 754 314 860 l 275 651 l 151 651 l 151 478 l 244 478 l 206 251 q 175 186 197 206 q 108 167 153 167 q 57 171 83 167 l 57 0 q 94 -6 76 -4 q 139 -7 113 -7 q 244 5 199 -7 q 324 44 290 17 q 378 114 357 71 q 410 218 399 157 l 456 478 l 646 478 l 646 651 l 486 651 l 496 707 q 529 778 504 756 q 600 801 554 801 q 646 798 622 801 q 694 788 669 794 z "},"≈":{"ha":1481,"x_min":43,"x_max":1382,"o":"m 1382 826 l 1382 1014 l 1160 1014 l 1160 826 l 1382 826 m 869 736 l 869 765 q 946 846 869 846 q 996 841 974 846 q 1042 828 1018 836 l 1042 1003 q 977 1018 1013 1013 q 892 1024 942 1024 q 720 966 779 1024 q 661 785 661 908 l 661 738 l 574 738 l 574 564 l 661 564 l 661 0 l 872 0 l 872 564 l 1040 564 l 1040 736 l 869 736 m 339 736 l 339 765 q 415 846 339 846 q 465 841 443 846 q 511 828 488 836 l 511 1003 q 447 1018 482 1013 q 361 1024 411 1024 q 190 966 249 1024 q 131 785 131 908 l 131 738 l 43 738 l 43 564 l 131 564 l 131 0 l 342 0 l 342 564 l 510 564 l 510 736 l 339 736 m 1376 0 l 1376 744 l 1165 744 l 1165 0 l 1376 0 z "},"«":{"ha":896,"x_min":57,"x_max":829,"o":"m 668 689 l 435 378 l 435 367 l 668 56 l 829 136 l 649 374 l 829 611 l 668 689 m 290 689 l 57 378 l 57 367 l 290 56 l 451 136 l 271 374 l 451 611 l 290 689 z "},"»":{"ha":896,"x_min":67,"x_max":839,"o":"m 606 56 l 839 367 l 839 378 l 606 689 l 444 608 l 625 371 l 444 133 l 606 56 m 228 56 l 461 367 l 461 378 l 228 689 l 67 608 l 247 371 l 67 133 l 228 56 z "},"…":{"ha":1167,"x_min":86,"x_max":1081,"o":"m 1081 0 l 1081 217 l 861 217 l 861 0 l 1081 0 m 693 0 l 693 217 l 474 217 l 474 0 l 693 0 m 306 0 l 306 217 l 86 217 l 86 0 l 306 0 z "}," ":{"ha":417,"x_min":0,"x_max":0,"o":""},"À":{"ha":1097,"x_min":33,"x_max":1064,"o":"m 1064 0 l 647 979 l 450 979 l 33 0 l 251 0 l 340 218 l 751 218 l 840 0 l 1064 0 m 675 407 l 417 407 l 546 722 l 675 407 m 638 1049 l 481 1294 l 299 1215 l 476 1049 l 638 1049 z "},"Ã":{"ha":1097,"x_min":33,"x_max":1064,"o":"m 1064 0 l 647 979 l 450 979 l 33 0 l 251 0 l 340 218 l 751 218 l 840 0 l 1064 0 m 675 407 l 417 407 l 546 722 l 675 407 m 835 1240 l 722 1275 q 691 1224 707 1242 q 643 1207 675 1207 q 601 1215 624 1207 q 553 1234 579 1224 q 497 1253 526 1244 q 435 1261 467 1261 q 372 1247 399 1261 q 324 1208 344 1233 q 290 1148 304 1183 q 263 1069 275 1113 l 375 1035 q 406 1085 390 1068 q 454 1103 422 1103 q 495 1094 472 1103 q 544 1076 518 1086 q 601 1057 571 1065 q 663 1049 631 1049 q 773 1101 735 1049 q 835 1240 811 1153 z "},"Õ":{"ha":1181,"x_min":74,"x_max":1107,"o":"m 1107 486 l 1107 489 q 1069 684 1107 593 q 962 842 1031 775 q 799 949 893 910 q 592 989 704 989 q 384 949 479 989 q 220 841 289 910 q 113 681 151 772 q 74 486 74 590 l 74 483 q 112 288 74 379 q 219 130 150 197 q 382 23 288 63 q 589 -17 476 -17 q 797 23 701 -17 q 960 131 892 63 q 1068 291 1029 200 q 1107 486 1107 382 m 883 483 q 862 366 883 421 q 802 269 840 311 q 710 204 764 228 q 592 181 656 181 q 473 205 526 181 q 380 271 419 229 q 319 368 340 313 q 297 486 297 424 l 297 489 q 319 606 297 551 q 378 703 340 661 q 470 768 417 744 q 589 792 524 792 q 707 767 653 792 q 801 701 761 743 q 862 604 840 660 q 883 486 883 549 l 883 483 m 876 1240 l 764 1275 q 733 1224 749 1242 q 685 1207 717 1207 q 643 1215 665 1207 q 594 1234 621 1224 q 538 1253 568 1244 q 476 1261 508 1261 q 413 1247 440 1261 q 366 1208 386 1233 q 331 1148 346 1183 q 304 1069 317 1113 l 417 1035 q 448 1085 432 1068 q 496 1103 464 1103 q 537 1094 514 1103 q 586 1076 560 1086 q 642 1057 613 1065 q 704 1049 672 1049 q 815 1101 776 1049 q 876 1240 853 1153 z "},"Œ":{"ha":1493,"x_min":74,"x_max":1419,"o":"m 1419 0 l 1419 190 l 926 190 l 926 394 l 1350 394 l 1350 585 l 926 585 l 926 782 l 1413 782 l 1413 972 l 590 972 q 381 935 475 972 q 217 831 286 897 q 111 676 149 765 q 74 485 74 588 q 111 293 74 382 q 217 139 149 204 q 381 37 286 74 q 590 0 475 0 l 1419 0 m 714 193 l 590 193 q 471 215 525 193 q 378 275 417 236 q 318 368 339 314 q 297 488 297 422 q 318 606 297 553 q 378 699 339 660 q 471 758 417 738 q 590 779 525 779 l 714 779 l 714 193 z "},"œ":{"ha":1435,"x_min":58,"x_max":1372,"o":"m 739 115 q 862 18 788 53 q 1031 -17 936 -17 q 1207 20 1132 -17 q 1335 122 1282 57 l 1214 229 q 1128 171 1169 189 q 1033 153 1086 153 q 915 190 963 153 q 851 299 868 226 l 1369 299 q 1372 326 1371 314 q 1372 353 1372 338 q 1351 506 1372 432 q 1285 635 1329 579 q 1174 725 1240 692 q 1015 758 1107 758 q 858 723 928 758 q 743 628 789 688 q 619 724 692 689 q 456 758 546 758 q 300 728 372 758 q 174 644 228 697 q 90 521 121 592 q 58 369 58 450 q 89 218 58 289 q 173 95 119 147 q 297 13 226 43 q 447 -17 368 -17 q 613 19 538 -17 q 739 115 688 54 m 849 431 q 902 546 861 503 q 1010 589 943 589 q 1117 545 1076 589 q 1167 431 1157 501 l 849 431 m 642 369 q 629 291 642 328 q 592 226 617 254 q 533 181 568 197 q 456 165 499 165 q 379 182 414 165 q 319 226 344 199 q 281 292 294 254 q 267 372 267 331 q 279 451 267 414 q 316 516 292 488 q 374 560 340 544 q 453 576 408 576 q 529 560 494 576 q 589 515 564 543 q 628 449 614 488 q 642 369 642 411 z "},"–":{"ha":733,"x_min":69,"x_max":664,"o":"m 664 332 l 664 529 l 69 529 l 69 332 l 664 332 z "},"—":{"ha":1247,"x_min":69,"x_max":1178,"o":"m 1178 332 l 1178 529 l 69 529 l 69 332 l 1178 332 z "},"“":{"ha":750,"x_min":79,"x_max":707,"o":"m 707 892 l 689 979 q 499 917 565 976 q 432 719 432 857 l 432 532 l 657 532 l 657 754 l 571 754 q 707 892 560 876 m 354 892 l 336 979 q 146 917 213 976 q 79 719 79 857 l 79 532 l 304 532 l 304 754 l 218 754 q 354 892 207 876 z "},"”":{"ha":750,"x_min":43,"x_max":671,"o":"m 396 613 l 414 525 q 604 587 538 526 q 671 785 671 647 l 671 972 l 446 972 l 446 750 l 532 750 q 396 613 543 628 m 43 613 l 61 525 q 251 587 185 526 q 318 785 318 647 l 318 972 l 93 972 l 93 750 l 179 750 q 43 613 190 628 z "},"‘":{"ha":397,"x_min":79,"x_max":354,"o":"m 354 892 l 336 979 q 146 917 213 976 q 79 719 79 857 l 79 532 l 304 532 l 304 754 l 218 754 q 354 892 207 876 z "},"’":{"ha":397,"x_min":43,"x_max":318,"o":"m 43 613 l 61 525 q 251 587 185 526 q 318 785 318 647 l 318 972 l 93 972 l 93 750 l 179 750 q 43 613 190 628 z "},"ÿ":{"ha":833,"x_min":28,"x_max":803,"o":"m 803 744 l 583 744 l 421 238 l 251 744 l 28 744 l 319 -3 q 290 -41 306 -31 q 246 -51 274 -51 q 201 -43 225 -51 q 156 -22 176 -35 l 85 -175 q 169 -212 125 -199 q 272 -226 214 -226 q 356 -215 319 -226 q 420 -179 392 -204 q 472 -115 449 -154 q 517 -18 496 -75 l 803 744 m 667 826 l 667 1014 l 464 1014 l 464 826 l 667 826 m 369 826 l 369 1014 l 167 1014 l 167 826 l 369 826 z "},"Ÿ":{"ha":994,"x_min":17,"x_max":978,"o":"m 978 972 l 735 972 l 499 582 l 267 972 l 17 972 l 390 383 l 390 0 l 604 0 l 604 388 l 978 972 m 747 1049 l 747 1236 l 544 1236 l 544 1049 l 747 1049 m 450 1049 l 450 1236 l 247 1236 l 247 1049 l 450 1049 z "},"¤":{"ha":1000,"x_min":68,"x_max":947,"o":"m 172 536 q 171 510 171 524 q 171 485 171 497 q 171 463 171 474 q 172 442 171 453 l 68 442 l 68 301 l 196 301 q 253 172 217 231 q 342 71 290 113 q 461 6 394 29 q 607 -17 528 -17 q 806 36 726 -17 q 947 175 886 89 l 794 288 q 708 202 749 231 q 607 174 667 174 q 493 206 540 174 q 419 301 446 239 l 678 301 l 678 442 l 389 442 q 388 464 388 453 q 388 488 388 476 q 388 513 388 500 q 389 536 388 525 l 678 536 l 678 676 l 422 676 q 492 767 449 735 q 599 799 536 799 q 701 770 660 799 q 783 689 743 742 l 944 811 q 884 883 917 850 q 810 939 851 915 q 718 976 769 963 q 603 989 667 989 q 460 966 525 989 q 345 901 396 943 q 257 802 294 860 q 199 676 219 744 l 68 676 l 68 536 l 172 536 z "},"‹":{"ha":518,"x_min":57,"x_max":451,"o":"m 290 689 l 57 378 l 57 367 l 290 56 l 451 136 l 271 374 l 451 611 l 290 689 z "},"›":{"ha":518,"x_min":67,"x_max":461,"o":"m 228 56 l 461 367 l 461 378 l 228 689 l 67 608 l 247 371 l 67 133 l 228 56 z "},"ﬁ":{"ha":950,"x_min":43,"x_max":851,"o":"m 851 826 l 851 1014 l 629 1014 l 629 826 l 851 826 m 339 736 l 339 765 q 415 846 339 846 q 465 841 443 846 q 511 828 488 836 l 511 1003 q 447 1018 482 1013 q 361 1024 411 1024 q 190 966 249 1024 q 131 785 131 908 l 131 738 l 43 738 l 43 564 l 131 564 l 131 0 l 342 0 l 342 564 l 510 564 l 510 736 l 339 736 m 846 0 l 846 744 l 635 744 l 635 0 l 846 0 z "},"ﬂ":{"ha":950,"x_min":43,"x_max":846,"o":"m 339 736 l 339 765 q 415 846 339 846 q 465 841 443 846 q 511 828 488 836 l 511 1003 q 447 1018 482 1013 q 361 1024 411 1024 q 190 966 249 1024 q 131 785 131 908 l 131 738 l 43 738 l 43 564 l 131 564 l 131 0 l 342 0 l 342 564 l 510 564 l 510 736 l 339 736 m 846 0 l 846 1014 l 635 1014 l 635 0 l 846 0 z "},"‡":{"ha":597,"x_min":88,"x_max":510,"o":"m 510 165 l 510 281 l 344 267 l 357 486 l 344 706 l 510 692 l 510 807 l 344 793 l 363 972 l 235 972 l 253 793 l 88 807 l 88 692 l 253 706 l 240 486 l 253 267 l 88 281 l 88 165 l 253 179 l 235 0 l 363 0 l 344 179 l 510 165 z "},"·":{"ha":397,"x_min":86,"x_max":311,"o":"m 311 319 l 311 542 l 86 542 l 86 319 l 311 319 z "},"‚":{"ha":397,"x_min":36,"x_max":311,"o":"m 36 -137 l 54 -225 q 244 -163 178 -224 q 311 35 311 -103 l 311 222 l 86 222 l 86 0 l 172 0 q 36 -137 183 -122 z "},"„":{"ha":750,"x_min":36,"x_max":664,"o":"m 389 -137 l 407 -225 q 597 -163 531 -224 q 664 35 664 -103 l 664 222 l 439 222 l 439 0 l 525 0 q 389 -137 536 -122 m 36 -137 l 54 -225 q 244 -163 178 -224 q 311 35 311 -103 l 311 222 l 86 222 l 86 0 l 172 0 q 36 -137 183 -122 z "},"‰":{"ha":1722,"x_min":63,"x_max":1660,"o":"m 535 736 q 518 833 535 788 q 470 911 501 878 q 396 964 439 944 q 300 983 353 983 q 203 964 247 983 q 128 910 160 944 q 80 831 97 876 q 63 733 63 785 q 79 637 63 682 q 127 558 96 592 q 201 506 158 525 q 297 486 244 486 q 394 506 350 486 q 469 559 438 525 q 517 638 500 593 q 535 736 535 683 m 869 972 l 160 0 l 325 0 l 1035 972 l 869 972 m 1660 239 q 1643 335 1660 290 q 1595 414 1626 381 q 1521 467 1564 447 q 1425 486 1478 486 q 1328 467 1372 486 q 1253 413 1285 447 q 1205 333 1222 379 q 1188 236 1188 288 q 1204 140 1188 185 q 1252 61 1221 94 q 1326 8 1283 28 q 1422 -11 1369 -11 q 1519 8 1475 -11 q 1594 62 1563 28 q 1642 141 1625 96 q 1660 239 1660 186 m 1132 239 q 1115 335 1132 290 q 1067 414 1099 381 q 993 467 1036 447 q 897 486 950 486 q 801 467 844 486 q 726 413 757 447 q 677 333 694 379 q 660 236 660 288 q 676 140 660 185 q 724 61 693 94 q 799 8 756 28 q 894 -11 842 -11 q 991 8 947 -11 q 1066 62 1035 28 q 1115 141 1097 96 q 1132 239 1132 186 m 389 733 q 367 649 389 685 q 300 613 344 613 q 233 649 258 613 q 208 736 208 686 q 231 821 208 785 q 297 857 253 857 q 364 820 339 857 q 389 733 389 783 m 1514 236 q 1492 151 1514 188 q 1425 115 1469 115 q 1358 152 1383 115 q 1333 239 1333 189 q 1356 324 1333 288 q 1422 360 1378 360 q 1489 323 1464 360 q 1514 236 1514 286 m 986 236 q 964 151 986 188 q 897 115 942 115 q 831 152 856 115 q 806 239 806 189 q 828 324 806 288 q 894 360 850 360 q 961 323 936 360 q 986 236 986 286 z "},"Â":{"ha":1097,"x_min":33,"x_max":1064,"o":"m 1064 0 l 647 979 l 450 979 l 33 0 l 251 0 l 340 218 l 751 218 l 840 0 l 1064 0 m 675 407 l 417 407 l 546 722 l 675 407 m 547 1140 l 657 1049 l 819 1049 l 649 1267 l 449 1267 l 278 1049 l 438 1049 l 547 1140 z "},"Ê":{"ha":931,"x_min":117,"x_max":857,"o":"m 857 0 l 857 190 l 329 190 l 329 394 l 788 394 l 788 585 l 329 585 l 329 782 l 850 782 l 850 972 l 117 972 l 117 0 l 857 0 m 479 1140 l 589 1049 l 751 1049 l 581 1267 l 381 1267 l 210 1049 l 369 1049 l 479 1140 z "},"Á":{"ha":1097,"x_min":33,"x_max":1064,"o":"m 1064 0 l 647 979 l 450 979 l 33 0 l 251 0 l 340 218 l 751 218 l 840 0 l 1064 0 m 675 407 l 417 407 l 546 722 l 675 407 m 621 1049 l 799 1215 l 617 1294 l 460 1049 l 621 1049 z "},"Ë":{"ha":931,"x_min":117,"x_max":857,"o":"m 857 0 l 857 190 l 329 190 l 329 394 l 788 394 l 788 585 l 329 585 l 329 782 l 850 782 l 850 972 l 117 972 l 117 0 l 857 0 m 731 1049 l 731 1236 l 528 1236 l 528 1049 l 731 1049 m 433 1049 l 433 1236 l 231 1236 l 231 1049 l 433 1049 z "},"È":{"ha":931,"x_min":117,"x_max":857,"o":"m 857 0 l 857 190 l 329 190 l 329 394 l 788 394 l 788 585 l 329 585 l 329 782 l 850 782 l 850 972 l 117 972 l 117 0 l 857 0 m 601 1049 l 444 1294 l 263 1215 l 440 1049 l 601 1049 z "},"Í":{"ha":467,"x_min":126,"x_max":485,"o":"m 340 0 l 340 972 l 126 972 l 126 0 l 340 0 m 307 1049 l 485 1215 l 303 1294 l 146 1049 l 307 1049 z "},"Î":{"ha":467,"x_min":126,"x_max":668,"o":"m 340 0 l 340 972 l 126 972 l 126 0 l 340 0 m 396 1140 l 506 1049 l 668 1049 l 497 1267 l 297 1267 l 126 1049 l 286 1049 l 396 1140 z "},"Ï":{"ha":467,"x_min":126,"x_max":626,"o":"m 340 0 l 340 972 l 126 972 l 126 0 l 340 0 m 626 1049 l 626 1236 l 424 1236 l 424 1049 l 626 1049 m 329 1049 l 329 1236 l 126 1236 l 126 1049 l 329 1049 z "},"Ì":{"ha":467,"x_min":126,"x_max":467,"o":"m 340 0 l 340 972 l 126 972 l 126 0 l 340 0 m 467 1049 l 310 1294 l 128 1215 l 306 1049 l 467 1049 z "},"Ó":{"ha":1181,"x_min":74,"x_max":1107,"o":"m 1107 486 l 1107 489 q 1069 684 1107 593 q 962 842 1031 775 q 799 949 893 910 q 592 989 704 989 q 384 949 479 989 q 220 841 289 910 q 113 681 151 772 q 74 486 74 590 l 74 483 q 112 288 74 379 q 219 130 150 197 q 382 23 288 63 q 589 -17 476 -17 q 797 23 701 -17 q 960 131 892 63 q 1068 291 1029 200 q 1107 486 1107 382 m 883 483 q 862 366 883 421 q 802 269 840 311 q 710 204 764 228 q 592 181 656 181 q 473 205 526 181 q 380 271 419 229 q 319 368 340 313 q 297 486 297 424 l 297 489 q 319 606 297 551 q 378 703 340 661 q 470 768 417 744 q 589 792 524 792 q 707 767 653 792 q 801 701 761 743 q 862 604 840 660 q 883 486 883 549 l 883 483 m 676 1049 l 854 1215 l 672 1294 l 515 1049 l 676 1049 z "},"Ô":{"ha":1181,"x_min":74,"x_max":1107,"o":"m 1107 486 l 1107 489 q 1069 684 1107 593 q 962 842 1031 775 q 799 949 893 910 q 592 989 704 989 q 384 949 479 989 q 220 841 289 910 q 113 681 151 772 q 74 486 74 590 l 74 483 q 112 288 74 379 q 219 130 150 197 q 382 23 288 63 q 589 -17 476 -17 q 797 23 701 -17 q 960 131 892 63 q 1068 291 1029 200 q 1107 486 1107 382 m 883 483 q 862 366 883 421 q 802 269 840 311 q 710 204 764 228 q 592 181 656 181 q 473 205 526 181 q 380 271 419 229 q 319 368 340 313 q 297 486 297 424 l 297 489 q 319 606 297 551 q 378 703 340 661 q 470 768 417 744 q 589 792 524 792 q 707 767 653 792 q 801 701 761 743 q 862 604 840 660 q 883 486 883 549 l 883 483 m 589 1140 l 699 1049 l 861 1049 l 690 1267 l 490 1267 l 319 1049 l 479 1049 l 589 1140 z "},"":{"ha":1343,"x_min":140,"x_max":1206,"o":"m 1206 0 l 1206 1042 l 140 1042 l 140 0 l 1206 0 m 1193 -144 l 1185 -97 l 1183 -97 l 1165 -133 l 1147 -97 l 1146 -97 l 1138 -144 l 1146 -144 l 1150 -117 l 1164 -146 l 1167 -146 l 1181 -117 l 1185 -144 l 1193 -144 m 1119 -121 q 1113 -104 1119 -111 q 1097 -97 1107 -97 q 1079 -104 1086 -97 q 1072 -122 1072 -111 q 1078 -139 1072 -132 q 1096 -146 1085 -146 q 1113 -139 1107 -146 q 1119 -121 1119 -132 m 1053 -133 q 1039 -139 1044 -139 q 1021 -121 1021 -139 q 1026 -109 1021 -114 q 1038 -104 1031 -104 q 1050 -108 1046 -104 l 1053 -101 q 1038 -97 1046 -97 q 1019 -104 1026 -97 q 1013 -122 1013 -111 q 1038 -146 1013 -146 q 1051 -142 1047 -146 l 1053 -133 m 975 -99 l 965 -99 l 953 -118 l 938 -97 l 929 -99 l 949 -125 l 949 -144 l 957 -144 l 957 -125 l 975 -99 m 911 -144 l 911 -99 l 903 -99 l 903 -117 l 881 -117 l 881 -99 l 872 -99 l 872 -144 l 881 -144 l 881 -124 l 903 -124 l 903 -144 l 911 -144 m 850 -114 q 844 -101 850 -107 q 818 -99 838 -96 l 818 -144 l 826 -144 l 826 -131 q 850 -114 850 -131 m 800 -144 l 778 -97 l 775 -97 l 754 -144 l 763 -144 l 767 -133 l 786 -133 l 792 -144 l 800 -144 m 742 -144 l 728 -126 q 738 -112 738 -122 q 731 -101 738 -106 q 706 -99 725 -96 l 706 -144 l 714 -144 l 714 -129 l 721 -129 l 732 -144 l 742 -144 m 682 -140 l 682 -119 l 661 -119 l 661 -126 l 674 -126 l 674 -136 q 665 -139 668 -139 q 647 -122 647 -139 q 664 -104 647 -104 q 679 -110 674 -104 l 682 -103 q 665 -97 674 -97 q 647 -104 654 -97 q 639 -122 639 -111 q 646 -140 639 -133 q 664 -146 653 -146 q 682 -140 674 -146 m 621 -121 q 615 -104 621 -111 q 599 -97 608 -97 q 581 -104 588 -97 q 574 -122 574 -111 q 580 -139 574 -132 q 597 -146 586 -146 q 615 -139 608 -146 q 621 -121 621 -132 m 556 -114 q 549 -101 556 -107 q 524 -99 543 -96 l 524 -144 l 532 -144 l 532 -131 q 556 -114 556 -131 m 506 -99 l 496 -99 l 483 -118 l 468 -97 l 460 -99 l 479 -125 l 479 -144 l 488 -144 l 488 -125 l 506 -99 m 449 -99 l 407 -99 l 407 -106 l 424 -106 l 424 -144 l 432 -144 l 432 -106 l 449 -106 l 449 -99 m 371 -99 l 363 -99 l 353 -129 l 339 -97 l 338 -97 l 324 -129 l 314 -97 l 306 -99 l 322 -146 l 324 -146 l 338 -114 l 353 -146 l 354 -146 l 371 -99 m 293 -99 l 285 -99 l 275 -129 l 261 -97 l 260 -97 l 246 -129 l 236 -97 l 228 -99 l 244 -146 l 246 -146 l 260 -114 l 275 -146 l 276 -146 l 293 -99 m 215 -99 l 207 -99 l 197 -129 l 183 -97 l 182 -97 l 168 -129 l 158 -97 l 150 -99 l 167 -146 l 168 -146 l 182 -114 l 197 -146 l 199 -146 l 215 -99 m 994 -140 q 989 -135 994 -135 q 983 -140 983 -135 q 989 -146 983 -146 q 994 -140 994 -146 m 394 -140 q 389 -135 394 -135 q 383 -140 383 -135 q 389 -146 383 -146 q 394 -140 394 -146 m 776 953 l 774 953 q 770 959 774 953 q 760 965 767 965 q 756 961 756 965 l 756 929 q 758 922 756 922 q 763 922 763 922 l 763 919 l 739 919 l 739 922 q 742 922 739 922 q 746 929 746 922 l 746 961 q 742 965 746 965 q 731 959 735 965 q 728 953 728 953 l 725 953 q 726 959 725 953 q 726 969 726 965 q 751 968 731 968 q 775 969 772 968 q 776 958 776 965 q 776 953 776 953 m 700 919 l 675 919 l 675 922 q 678 922 675 922 q 682 929 682 922 l 682 943 l 658 943 l 658 929 q 662 923 658 924 q 665 922 665 922 l 665 919 l 642 919 l 642 922 q 645 923 642 922 q 649 929 649 924 l 649 958 q 644 965 649 965 q 642 965 642 965 l 642 968 l 665 968 l 665 967 l 665 965 q 661 965 665 965 q 658 958 658 965 l 658 946 l 682 946 l 682 958 q 678 965 682 965 q 675 965 675 965 l 675 967 l 675 968 l 700 968 l 700 965 q 696 965 700 965 q 692 958 692 965 l 692 929 q 696 922 692 922 q 700 922 700 922 l 700 919 m 610 922 l 610 919 l 568 919 l 565 935 l 568 936 q 572 930 568 936 q 582 924 575 924 l 588 924 q 593 928 593 924 l 593 943 l 588 943 q 580 939 581 943 q 579 935 579 935 l 576 935 l 576 953 l 579 953 q 580 949 579 953 q 588 946 581 946 l 593 946 l 593 960 q 588 964 593 964 l 582 964 q 572 958 575 964 q 569 953 569 953 l 567 954 l 569 968 l 610 968 l 610 965 q 606 965 610 965 q 603 958 603 965 l 603 929 q 606 922 603 922 q 610 922 610 922 m 1149 858 l 197 858 l 197 867 l 1149 867 l 1149 858 m 967 750 q 956 726 967 733 q 935 719 944 719 q 899 735 915 719 q 883 772 883 750 q 894 796 883 789 q 915 803 906 803 q 951 787 935 803 q 967 750 967 771 m 818 746 q 810 727 818 735 q 783 719 801 719 q 761 738 761 719 q 774 751 761 751 q 783 744 783 751 q 778 738 783 738 q 774 739 775 738 q 771 740 772 740 q 767 736 767 740 q 783 724 767 724 q 800 743 800 724 q 792 764 800 757 q 776 757 785 757 q 765 765 765 757 q 788 774 765 776 q 790 782 790 776 q 776 799 790 799 q 767 792 767 799 q 769 788 767 789 q 771 783 771 788 q 765 779 771 779 q 758 788 758 779 q 776 803 758 803 q 799 796 792 803 q 806 782 806 789 q 799 769 806 774 q 818 746 818 763 m 410 746 q 401 727 410 735 q 375 719 393 719 q 353 738 353 719 q 365 751 353 751 q 375 744 375 751 q 369 738 375 738 q 365 739 367 738 q 363 740 364 740 q 358 736 358 740 q 375 724 358 724 q 392 743 392 724 q 383 764 392 757 q 368 757 376 757 q 357 765 357 757 q 379 774 357 776 q 382 782 382 776 q 368 799 382 799 q 358 792 358 799 q 360 788 358 789 q 363 783 363 788 q 357 779 363 779 q 350 788 350 779 q 368 803 350 803 q 390 796 383 803 q 397 782 397 789 q 390 769 397 774 q 410 746 410 763 m 1139 725 l 1140 721 l 1100 721 l 1099 725 q 1105 726 1099 725 q 1108 736 1111 726 l 1104 758 l 1071 758 l 1075 736 q 1083 726 1078 726 q 1089 725 1089 725 l 1090 721 l 1050 721 l 1049 725 q 1055 726 1049 725 q 1058 736 1061 726 l 1049 785 q 1040 795 1046 794 q 1035 796 1035 796 l 1033 800 l 1074 800 l 1075 796 q 1069 795 1075 796 q 1065 785 1063 794 l 1069 764 l 1103 764 l 1099 785 q 1091 795 1096 794 q 1086 796 1086 796 l 1085 800 l 1124 800 l 1125 796 q 1119 795 1125 796 q 1115 785 1113 794 l 1125 736 q 1133 726 1128 726 q 1139 725 1139 725 m 692 721 l 651 721 l 650 725 q 656 726 650 725 q 660 736 663 726 l 656 760 l 650 760 q 640 752 640 760 q 639 744 639 744 l 635 744 l 628 776 l 632 776 q 635 770 632 776 q 649 764 639 764 l 654 764 l 650 786 q 642 794 649 794 l 636 794 q 619 785 621 794 q 618 776 618 776 l 613 776 q 613 786 613 776 q 613 800 614 796 l 675 800 l 676 796 q 670 795 676 796 q 667 785 664 794 l 676 736 q 685 726 679 726 q 690 725 690 725 l 692 721 m 281 725 l 282 721 l 242 721 l 240 725 q 247 726 240 725 q 250 736 253 726 l 246 757 q 239 753 240 757 l 222 721 l 196 721 l 194 725 q 201 726 194 725 q 214 736 208 726 l 226 758 q 208 765 215 760 q 200 779 200 771 q 228 800 200 800 l 265 800 l 267 796 q 260 795 267 796 q 257 785 254 794 l 267 736 q 275 726 269 726 q 281 725 281 725 m 556 724 q 550 719 556 719 q 533 729 538 719 q 519 720 522 729 q 499 711 517 711 q 485 716 492 711 q 478 728 478 721 q 485 738 478 738 q 492 731 492 738 q 490 727 492 728 q 489 724 489 726 q 496 718 489 718 q 508 727 503 718 q 528 736 513 736 q 516 755 519 744 q 511 775 513 765 q 508 792 510 785 q 499 799 506 799 q 492 790 492 799 q 486 782 492 782 q 479 789 479 782 q 485 798 479 793 q 497 803 490 803 q 520 794 514 803 q 528 773 526 785 q 531 751 531 761 q 538 736 532 740 q 551 731 547 735 q 556 724 556 726 m 1149 660 l 197 660 l 197 668 l 1149 668 l 1149 660 m 1149 525 l 1099 525 l 1099 564 l 1083 564 l 1083 474 l 1103 474 l 1103 428 l 990 428 l 990 474 l 1010 474 l 1010 564 l 994 564 l 994 525 l 944 525 l 944 611 l 1149 611 l 1149 525 m 900 564 l 881 564 l 829 501 l 829 474 l 850 474 l 850 428 l 738 428 l 738 474 l 757 474 l 757 500 l 706 564 l 689 564 l 689 611 l 775 611 l 775 564 l 761 564 l 782 532 l 803 564 l 788 564 l 788 611 l 900 611 l 900 564 m 636 428 l 524 428 l 524 474 l 544 474 l 544 500 l 503 500 q 455 516 472 500 q 438 556 438 532 q 455 595 438 579 q 503 611 472 611 l 636 611 l 636 564 l 617 564 l 617 474 l 636 474 l 636 428 m 393 428 l 197 428 l 197 513 l 254 513 l 254 474 l 300 474 l 300 503 l 267 503 l 267 536 l 300 536 l 300 564 l 254 564 l 254 525 l 197 525 l 197 611 l 393 611 l 393 564 l 374 564 l 374 474 l 393 474 l 393 428 m 1149 376 l 197 376 l 197 385 l 1149 385 l 1149 376 m 1011 267 q 1000 243 1011 250 q 979 236 989 236 q 944 251 960 236 q 928 289 928 267 q 939 313 928 306 q 960 319 950 319 q 995 303 979 319 q 1011 267 1011 288 m 282 301 l 279 299 q 273 305 276 301 q 263 308 269 308 q 250 290 250 308 q 257 256 250 279 q 265 244 260 244 q 271 243 271 243 l 272 238 l 233 238 l 232 243 q 238 244 232 243 q 240 264 244 246 q 228 295 236 281 q 207 310 221 310 q 196 301 196 310 l 192 303 q 197 315 192 311 q 208 319 201 319 q 226 310 219 319 q 238 288 233 301 q 257 319 236 319 q 273 314 268 319 q 282 301 278 308 m 1143 238 l 1103 238 l 1101 242 q 1108 242 1101 242 q 1111 253 1114 243 l 1107 276 l 1101 276 q 1091 269 1092 276 q 1090 261 1090 261 l 1086 261 l 1079 293 l 1083 293 q 1087 287 1083 293 q 1100 281 1090 281 l 1106 281 l 1101 303 q 1093 311 1100 311 l 1088 311 q 1071 302 1072 311 q 1069 293 1069 293 l 1064 293 q 1065 303 1064 293 q 1064 317 1065 313 l 1126 317 l 1128 313 q 1122 312 1128 313 q 1118 301 1115 311 l 1128 253 q 1136 242 1131 243 q 1142 242 1142 242 l 1143 238 m 863 313 q 856 312 863 313 q 851 300 849 311 l 858 269 q 858 247 861 258 q 832 236 856 236 q 804 249 813 236 q 793 274 796 263 l 788 300 q 778 312 785 311 q 772 313 772 313 l 771 317 l 804 317 l 804 313 q 798 312 804 313 q 794 300 792 311 l 800 274 q 810 252 803 261 q 828 243 817 243 q 844 250 843 243 q 843 271 846 257 l 836 300 q 828 312 833 311 q 822 313 822 313 l 821 317 l 861 317 l 863 313 m 725 242 l 726 238 l 697 238 l 696 242 q 701 243 696 242 q 704 256 707 244 l 696 297 l 654 236 l 650 238 l 639 300 q 631 311 636 310 q 626 313 626 313 l 625 317 l 654 317 l 656 313 q 649 311 656 313 q 646 300 643 310 l 653 258 l 693 317 l 713 317 l 714 313 q 707 312 714 313 q 703 300 700 311 l 713 256 q 720 243 715 244 q 725 242 725 242 m 575 238 l 531 238 q 497 251 513 238 q 482 286 482 264 q 493 309 482 301 q 517 317 504 317 l 558 317 l 560 313 q 549 299 544 311 l 560 256 q 568 244 563 244 q 574 243 574 243 l 575 238 m 425 242 l 426 238 l 386 238 l 385 242 q 391 242 385 242 q 394 253 397 243 l 390 274 q 383 269 385 274 l 367 238 l 340 238 l 339 242 q 346 242 339 242 q 358 253 353 243 l 371 275 q 352 282 360 276 q 344 296 344 288 q 372 317 344 317 l 410 317 l 411 313 q 405 312 411 313 q 401 301 399 311 l 411 253 q 419 242 414 243 q 425 242 425 242 m 1149 176 l 197 176 l 197 185 l 1149 185 l 1149 176 m 964 64 l 944 64 l 944 67 q 948 68 944 67 q 951 74 951 69 l 951 101 l 917 63 l 913 63 l 913 101 q 908 108 913 107 q 904 110 904 110 l 904 113 l 925 113 l 925 110 q 921 108 925 110 q 917 101 917 107 l 917 76 l 950 113 l 964 113 l 964 110 q 960 107 964 110 q 956 101 956 104 l 956 74 q 960 68 956 69 q 964 67 964 67 l 964 64 m 879 67 l 879 64 l 838 64 l 835 79 l 838 81 q 841 74 838 81 q 851 68 844 68 l 857 68 q 863 72 863 68 l 863 88 l 857 88 q 849 83 850 88 q 849 79 849 79 l 846 79 l 846 97 l 849 97 q 849 94 849 97 q 857 90 850 90 l 863 90 l 863 104 q 857 108 863 108 l 851 108 q 842 103 844 108 q 839 97 839 97 l 836 99 l 839 113 l 879 113 l 879 110 q 875 110 879 110 q 872 103 872 110 l 872 74 q 875 67 872 67 q 879 67 879 67 m 810 113 l 810 110 q 806 109 810 110 q 800 101 803 108 l 783 64 l 782 64 l 769 86 l 758 64 q 758 63 758 63 q 757 64 757 64 l 756 64 l 738 101 q 732 108 735 107 q 729 110 729 110 l 729 113 l 747 113 l 747 110 q 744 108 747 110 q 744 101 742 107 l 756 76 l 765 94 l 761 101 q 754 109 757 108 q 751 110 751 110 l 750 113 l 786 113 l 786 110 q 783 108 786 110 q 778 101 781 106 l 772 90 l 779 76 l 792 103 q 792 108 794 107 q 789 110 789 110 l 789 113 l 810 113 m 667 110 q 663 109 667 110 q 657 103 660 108 l 646 86 l 646 75 q 649 67 646 68 q 653 67 653 67 l 653 64 l 629 64 l 629 67 q 633 67 629 67 q 636 75 636 68 l 636 86 l 625 103 q 618 109 622 108 q 614 110 614 110 l 614 113 l 635 113 l 635 110 q 631 109 635 110 q 631 103 628 108 l 639 90 l 647 103 q 648 109 650 108 q 646 110 646 110 l 646 113 l 667 113 l 667 110 m 590 89 q 583 70 590 78 q 563 63 576 63 q 542 70 549 63 q 535 89 535 78 q 542 107 535 100 q 563 114 549 114 q 583 107 576 114 q 590 89 590 100 m 506 64 l 482 64 l 482 67 q 485 67 482 67 q 489 74 489 68 l 489 86 q 479 81 483 86 l 469 64 l 454 64 l 454 67 q 458 67 454 67 q 465 74 461 68 l 475 88 q 463 100 463 93 q 481 113 463 113 l 506 113 l 506 110 q 502 109 506 110 q 499 101 499 108 l 499 74 q 502 67 499 68 q 506 67 506 67 l 506 64 m 429 64 l 404 64 l 404 67 q 408 67 404 67 q 413 75 413 68 l 413 88 q 407 85 410 88 l 396 74 q 395 67 392 68 q 399 67 399 67 l 399 64 l 375 64 l 375 67 q 378 69 375 67 q 385 74 382 71 l 403 92 l 389 104 q 382 108 386 107 q 378 110 378 110 l 378 113 l 397 113 l 397 110 q 395 108 397 110 q 396 104 393 107 l 407 93 q 413 90 410 90 l 413 103 q 408 109 413 108 q 404 110 404 110 l 404 113 l 429 113 l 429 110 q 425 109 429 110 q 421 103 421 108 l 421 75 q 425 68 421 69 q 429 67 429 67 l 429 64 m 842 -115 q 826 -124 842 -124 l 826 -106 q 842 -115 842 -104 m 729 -114 q 714 -122 729 -124 l 714 -106 q 729 -114 729 -103 m 547 -115 q 532 -124 547 -124 l 532 -106 q 547 -115 547 -104 m 783 -128 l 769 -128 l 776 -111 l 783 -128 m 1111 -122 q 1096 -139 1111 -139 q 1081 -121 1081 -139 q 1096 -104 1081 -104 q 1111 -122 1111 -104 m 613 -122 q 597 -139 613 -139 q 582 -121 582 -139 q 597 -104 582 -104 q 613 -122 613 -104 m 244 761 l 240 788 q 228 794 239 794 q 217 782 217 794 q 222 768 217 775 q 238 761 226 761 l 244 761 m 786 768 q 776 769 783 769 q 771 765 771 769 q 776 763 771 763 q 786 768 782 763 m 378 768 q 368 769 375 769 q 363 765 363 769 q 368 763 363 763 q 378 768 374 763 m 950 743 q 939 781 950 765 q 915 797 928 797 q 900 778 900 797 q 911 741 900 757 q 935 725 922 725 q 950 743 950 725 m 544 533 l 544 564 l 529 564 q 511 549 511 564 q 529 533 511 533 l 544 533 m 389 278 l 385 304 q 372 311 383 311 q 361 299 361 311 q 366 285 361 292 q 382 278 371 278 l 389 278 m 994 260 q 983 298 994 282 q 960 314 972 314 q 944 294 944 314 q 956 258 944 274 q 979 242 967 242 q 994 260 994 242 m 546 253 l 533 301 q 530 309 531 308 q 525 311 529 310 l 517 311 q 497 288 497 311 q 508 257 497 271 q 533 243 518 243 l 540 243 q 546 253 546 243 m 768 110 q 768 97 761 110 q 768 110 774 110 m 489 89 l 489 103 q 483 108 489 108 q 474 100 474 108 q 485 89 474 89 l 489 89 m 579 89 q 563 111 579 111 q 546 89 546 111 q 550 72 546 79 q 563 65 554 65 q 576 72 572 65 q 579 89 579 79 z "},"Ò":{"ha":1181,"x_min":74,"x_max":1107,"o":"m 1107 486 l 1107 489 q 1069 684 1107 593 q 962 842 1031 775 q 799 949 893 910 q 592 989 704 989 q 384 949 479 989 q 220 841 289 910 q 113 681 151 772 q 74 486 74 590 l 74 483 q 112 288 74 379 q 219 130 150 197 q 382 23 288 63 q 589 -17 476 -17 q 797 23 701 -17 q 960 131 892 63 q 1068 291 1029 200 q 1107 486 1107 382 m 883 483 q 862 366 883 421 q 802 269 840 311 q 710 204 764 228 q 592 181 656 181 q 473 205 526 181 q 380 271 419 229 q 319 368 340 313 q 297 486 297 424 l 297 489 q 319 606 297 551 q 378 703 340 661 q 470 768 417 744 q 589 792 524 792 q 707 767 653 792 q 801 701 761 743 q 862 604 840 660 q 883 486 883 549 l 883 483 m 665 1049 l 508 1294 l 326 1215 l 504 1049 l 665 1049 z "},"Ú":{"ha":1050,"x_min":101,"x_max":949,"o":"m 949 424 l 949 972 l 735 972 l 735 415 q 679 240 735 299 q 525 182 624 182 q 371 242 426 182 q 315 422 315 303 l 315 972 l 101 972 l 101 417 q 214 93 101 201 q 522 -15 326 -15 q 699 12 619 -15 q 833 94 778 39 q 919 231 889 149 q 949 424 949 313 m 590 1042 l 768 1208 l 586 1288 l 429 1042 l 590 1042 z "},"Û":{"ha":1050,"x_min":101,"x_max":949,"o":"m 949 424 l 949 972 l 735 972 l 735 415 q 679 240 735 299 q 525 182 624 182 q 371 242 426 182 q 315 422 315 303 l 315 972 l 101 972 l 101 417 q 214 93 101 201 q 522 -15 326 -15 q 699 12 619 -15 q 833 94 778 39 q 919 231 889 149 q 949 424 949 313 m 524 1140 l 633 1049 l 796 1049 l 625 1267 l 425 1267 l 254 1049 l 414 1049 l 524 1140 z "},"Ù":{"ha":1050,"x_min":101,"x_max":949,"o":"m 949 424 l 949 972 l 735 972 l 735 415 q 679 240 735 299 q 525 182 624 182 q 371 242 426 182 q 315 422 315 303 l 315 972 l 101 972 l 101 417 q 214 93 101 201 q 522 -15 326 -15 q 699 12 619 -15 q 833 94 778 39 q 919 231 889 149 q 949 424 949 313 m 621 1042 l 464 1288 l 282 1208 l 460 1042 l 621 1042 z "},"ı":{"ha":419,"x_min":104,"x_max":315,"o":"m 315 0 l 315 744 l 104 744 l 104 0 l 315 0 z "},"ˆ":{"ha":694,"x_min":76,"x_max":618,"o":"m 346 918 l 456 826 l 618 826 l 447 1044 l 247 1044 l 76 826 l 236 826 l 346 918 z "},"˜":{"ha":694,"x_min":61,"x_max":633,"o":"m 633 1018 l 521 1053 q 490 1002 506 1019 q 442 985 474 985 q 400 993 422 985 q 351 1012 378 1001 q 295 1031 325 1022 q 233 1039 265 1039 q 170 1025 197 1039 q 123 986 143 1011 q 88 926 103 961 q 61 847 74 890 l 174 813 q 205 863 189 846 q 253 881 221 881 q 294 872 271 881 q 343 853 317 864 q 399 835 369 843 q 461 826 429 826 q 572 878 533 826 q 633 1018 610 931 z "},"¯":{"ha":694,"x_min":97,"x_max":597,"o":"m 597 833 l 597 979 l 97 979 l 97 833 l 597 833 z "},"˘":{"ha":694,"x_min":86,"x_max":608,"o":"m 608 1044 l 467 1044 q 427 984 454 1007 q 347 961 400 961 q 267 984 294 961 q 228 1044 240 1007 l 86 1044 q 166 881 96 939 q 347 824 236 824 q 528 881 458 824 q 608 1044 599 939 z "},"˙":{"ha":694,"x_min":243,"x_max":451,"o":"m 451 826 l 451 1014 l 243 1014 l 243 826 l 451 826 z "},"˚":{"ha":694,"x_min":179,"x_max":515,"o":"m 515 986 q 501 1049 515 1019 q 465 1101 488 1079 q 411 1135 442 1122 q 347 1149 381 1149 q 283 1135 314 1149 q 230 1101 253 1122 q 193 1049 207 1079 q 179 986 179 1019 q 193 923 179 953 q 230 872 207 893 q 283 837 253 850 q 347 824 314 824 q 411 837 381 824 q 465 872 442 850 q 501 923 488 893 q 515 986 515 953 m 433 986 q 408 925 433 950 q 347 900 383 900 q 286 925 311 900 q 261 986 261 950 q 286 1047 261 1022 q 347 1072 311 1072 q 408 1047 383 1072 q 433 986 433 1022 z "},"¸":{"ha":694,"x_min":164,"x_max":443,"o":"m 288 14 l 164 -167 l 340 -240 l 443 14 l 288 14 z "},"˝":{"ha":694,"x_min":50,"x_max":656,"o":"m 475 826 l 656 993 l 478 1072 l 321 826 l 475 826 m 204 826 l 382 993 l 204 1072 l 50 826 l 204 826 z "},"˛":{"ha":694,"x_min":238,"x_max":515,"o":"m 404 14 l 260 14 q 244 -29 250 -6 q 238 -76 238 -53 q 310 -199 238 -160 q 515 -228 382 -239 l 515 -135 q 422 -107 449 -131 q 396 -40 396 -83 q 404 14 396 -15 z "},"ˇ":{"ha":694,"x_min":76,"x_max":618,"o":"m 349 953 l 239 1044 l 76 1044 l 247 826 l 447 826 l 618 1044 l 458 1044 l 349 953 z "},"ł":{"ha":503,"x_min":42,"x_max":461,"o":"m 356 450 l 461 482 l 461 681 l 356 649 l 356 1014 l 147 1014 l 147 588 l 42 556 l 42 357 l 147 389 l 147 0 l 356 0 l 356 450 z "},"Š":{"ha":889,"x_min":50,"x_max":819,"o":"m 819 288 l 819 290 q 799 400 819 354 q 740 480 779 446 q 642 538 700 514 q 511 582 585 563 q 408 611 449 599 q 343 638 367 624 q 310 669 319 651 q 301 710 301 686 l 301 713 q 333 773 301 749 q 426 797 364 797 q 551 772 489 797 q 679 701 614 746 l 790 863 q 626 954 715 922 q 429 986 536 986 q 292 965 354 986 q 184 906 229 944 q 114 813 139 867 q 89 693 89 760 l 89 690 q 112 569 89 618 q 176 488 135 521 q 278 433 218 456 q 411 393 338 411 q 510 364 472 378 q 570 336 549 350 q 599 306 592 322 q 607 269 607 290 l 607 267 q 570 199 607 224 q 467 175 533 175 q 313 207 383 175 q 176 293 243 239 l 50 142 q 244 24 138 63 q 463 -14 351 -14 q 607 6 542 -14 q 719 65 672 26 q 793 159 767 103 q 819 288 819 215 m 442 1175 l 332 1267 l 169 1267 l 340 1049 l 540 1049 l 711 1267 l 551 1267 l 442 1175 z "},"š":{"ha":697,"x_min":36,"x_max":640,"o":"m 640 226 l 640 229 q 619 317 640 281 q 567 378 599 353 q 494 420 535 403 q 415 450 454 438 q 358 469 385 460 q 310 490 331 479 q 276 512 289 500 q 264 539 264 524 l 264 542 q 283 578 264 564 q 342 593 303 593 q 435 574 382 593 q 543 524 488 556 l 624 669 q 490 733 563 710 q 346 756 417 756 q 240 740 289 756 q 153 694 190 725 q 95 620 117 664 q 74 519 74 576 l 74 517 q 94 425 74 463 q 146 362 114 388 q 217 320 178 336 q 296 293 257 304 q 354 275 326 283 q 403 258 382 267 q 438 236 425 249 q 450 207 450 224 l 450 204 q 428 164 450 179 q 361 149 407 149 q 248 171 308 149 q 126 238 188 193 l 36 99 q 194 13 111 40 q 356 -14 276 -14 q 467 1 415 -14 q 558 44 519 15 q 619 119 597 74 q 640 226 640 164 m 356 953 l 246 1044 l 83 1044 l 254 826 l 454 826 l 625 1044 l 465 1044 l 356 953 z "},"Ý":{"ha":994,"x_min":17,"x_max":978,"o":"m 978 972 l 735 972 l 499 582 l 267 972 l 17 972 l 390 383 l 390 0 l 604 0 l 604 388 l 978 972 m 576 1042 l 754 1208 l 572 1288 l 415 1042 l 576 1042 z "},"ý":{"ha":833,"x_min":28,"x_max":803,"o":"m 803 744 l 583 744 l 421 238 l 251 744 l 28 744 l 319 -3 q 290 -41 306 -31 q 246 -51 274 -51 q 201 -43 225 -51 q 156 -22 176 -35 l 85 -175 q 169 -212 125 -199 q 272 -226 214 -226 q 356 -215 319 -226 q 420 -179 392 -204 q 472 -115 449 -154 q 517 -18 496 -75 l 803 744 m 479 826 l 657 993 l 475 1072 l 318 826 l 479 826 z "},"Þ":{"ha":935,"x_min":117,"x_max":886,"o":"m 886 493 q 860 631 886 568 q 787 738 835 693 q 670 806 739 782 q 514 831 601 831 l 331 831 l 331 972 l 117 972 l 117 0 l 331 0 l 331 150 l 493 150 q 647 172 575 150 q 772 236 718 193 q 856 344 825 279 q 886 493 886 408 m 669 489 q 625 382 669 424 q 500 340 581 340 l 331 340 l 331 638 l 496 638 q 623 600 576 638 q 669 489 669 563 z "},"þ":{"ha":938,"x_min":94,"x_max":876,"o":"m 876 372 q 848 538 876 465 q 772 659 819 610 q 664 733 725 708 q 538 758 603 758 q 399 724 454 758 q 306 638 344 690 l 306 1014 l 94 1014 l 94 -222 l 306 -222 l 306 97 q 398 19 343 53 q 538 -14 453 -14 q 665 11 604 -14 q 773 85 726 36 q 848 206 819 135 q 876 372 876 278 m 665 372 q 651 287 665 325 q 611 222 636 249 q 553 180 586 194 q 483 165 521 165 q 413 180 446 165 q 356 222 381 194 q 317 287 332 249 q 303 372 303 325 q 317 458 303 419 q 356 523 332 496 q 413 565 381 550 q 483 579 446 579 q 553 565 521 579 q 611 523 586 550 q 651 458 636 496 q 665 372 665 419 z "},"Ž":{"ha":983,"x_min":88,"x_max":897,"o":"m 897 0 l 897 188 l 363 188 l 897 810 l 897 972 l 104 972 l 104 785 l 622 785 l 88 163 l 88 0 l 897 0 m 497 1175 l 388 1267 l 225 1267 l 396 1049 l 596 1049 l 767 1267 l 607 1267 l 497 1175 z "},"ž":{"ha":782,"x_min":69,"x_max":717,"o":"m 717 0 l 717 171 l 331 171 l 717 596 l 717 744 l 82 744 l 82 574 l 454 574 l 69 149 l 69 0 l 717 0 m 403 953 l 293 1044 l 131 1044 l 301 826 l 501 826 l 672 1044 l 513 1044 l 403 953 z "},"Ł":{"ha":901,"x_min":54,"x_max":857,"o":"m 857 0 l 857 194 l 369 194 l 369 428 l 636 507 l 636 706 l 369 626 l 369 972 l 158 972 l 158 563 l 54 532 l 54 333 l 158 364 l 158 0 l 857 0 z "},"Ω":{"ha":1061,"x_min":43,"x_max":1042,"o":"m 869 736 l 869 765 q 946 846 869 846 q 996 841 974 846 q 1042 828 1018 836 l 1042 1003 q 977 1018 1013 1013 q 892 1024 942 1024 q 720 966 779 1024 q 661 785 661 908 l 661 738 l 574 738 l 574 564 l 661 564 l 661 0 l 872 0 l 872 564 l 1040 564 l 1040 736 l 869 736 m 339 736 l 339 765 q 415 846 339 846 q 465 841 443 846 q 511 828 488 836 l 511 1003 q 447 1018 482 1013 q 361 1024 411 1024 q 190 966 249 1024 q 131 785 131 908 l 131 738 l 43 738 l 43 564 l 131 564 l 131 0 l 342 0 l 342 564 l 510 564 l 510 736 l 339 736 z "},"∕":{"ha":667,"x_min":-99,"x_max":735,"o":"m 549 1053 l -99 -136 l 88 -136 l 735 1053 l 549 1053 z "},"Ð":{"ha":1128,"x_min":54,"x_max":1054,"o":"m 158 394 l 158 0 l 538 0 q 747 38 651 0 q 910 140 842 75 q 1017 295 979 206 q 1054 488 1054 385 q 1017 679 1054 590 q 910 833 979 768 q 747 935 842 899 q 538 972 651 972 l 158 972 l 158 583 l 54 583 l 54 394 l 158 394 m 369 583 l 369 779 l 538 779 q 657 758 603 779 q 749 697 711 736 q 809 604 788 658 q 831 485 831 550 q 809 366 831 419 q 749 274 788 313 q 657 214 711 235 q 538 193 603 193 l 369 193 l 369 394 l 581 394 l 581 583 l 369 583 z "},"ð":{"ha":900,"x_min":58,"x_max":839,"o":"m 426 792 l 547 631 q 464 665 503 654 q 376 675 425 675 q 249 651 307 675 q 148 585 190 628 q 82 481 106 542 q 58 349 58 421 q 88 206 58 272 q 167 90 117 139 q 289 12 218 40 q 443 -17 360 -17 q 610 14 536 -17 q 735 97 683 44 q 813 218 786 149 q 839 365 839 288 q 832 451 839 410 q 810 533 825 493 q 773 616 796 574 q 717 704 750 658 l 604 864 l 746 921 l 669 1025 l 531 968 l 499 1014 l 261 1014 l 350 894 l 190 831 l 268 726 l 426 792 m 633 344 q 621 272 633 306 q 585 214 608 239 q 527 175 561 189 q 450 161 493 161 q 374 176 408 161 q 315 215 340 190 q 277 274 290 240 q 264 344 264 307 q 277 416 264 383 q 314 473 290 449 q 372 511 338 497 q 449 525 407 525 q 525 511 490 525 q 583 472 560 497 q 620 415 607 447 q 633 344 633 382 z "}}}
